<mxfile host="app.diagrams.net" modified="2022-11-02T07:41:05.733Z" agent="5.0 (Windows NT 10.0; Win64; x64) AppleWebKit/537.36 (KHTML, like Gecko) Chrome/106.0.0.0 Safari/537.36" etag="KPiVRQ59yKJDtXJJqvaW" version="20.5.1" type="github">
  <diagram id="hVTMa7N5BbWFUX2b0cYQ" name="StrÃ¡nka-1">
    <mxGraphModel dx="1422" dy="800" grid="1" gridSize="10" guides="1" tooltips="1" connect="1" arrows="1" fold="1" page="1" pageScale="1" pageWidth="827" pageHeight="1169" math="0" shadow="0">
      <root>
        <mxCell id="0" />
        <mxCell id="1" parent="0" />
        <mxCell id="TW2lL7LWxKuJIwYdTBNt-1" value="" style="shape=image;verticalLabelPosition=bottom;labelBackgroundColor=default;verticalAlign=top;aspect=fixed;imageAspect=0;image=data:image/png,iVBORw0KGgoAAAANSUhEUgAAAsUAAAE6CAYAAAD+5y9JAAAAAXNSR0IArs4c6QAAAARnQU1BAACxjwv8YQUAAAAJcEhZcwAADsMAAA7DAcdvqGQAAHQlSURBVHhe7b0PdB3Xfd/5deOWjXfN1N5AYirk6KwfgY21Uh3YqCIRZYHQNSBqLdk1A+IglkkXIBoasbNVJLFYkK1WCQk9UbaVkzg0sxAQiZaNEhA3iugVDSSm8ZYFpVowYYcu5QJ8bnkKH1FEjn3KnLXLHrvY+7tzZ+bOvJl58/6A+PO+H55HzJ8798/v/u6d39z7mztvW1aAEEIIIYSQGuZvmb+EEEIIIYTULDSKCSGEEEJIzUOjmBBCCCGE1Dw0igkhhBBCSM1Do5gQQgghhNQ8NIoJIYQQQkjNQ6OYEEIIIYTUPDSKCSGEEEJIzUOjmBBCCCGE1Dw0igkhhBBCSM1Do5gQQgghhNQ8NIoJIYQQQkjNQ6OYEEIIIYTUPDSKCSGEEEJIzUOjmBBCCCGE1Dw0igkhhBBCSM1Do5gQQgghhNQ8NWgU38DcH38EdzU04K7fmsDiz8xhsiZZOtWHRlVX8svOmoMVcuPbx/DR96k439eHiR+Yg2WxhNO/8wGdt51H55RmEUIIIWS9srJG8Y1X8XtifGijJos5c7gS5o668YV/d6LlwY9g72NZfPlsHtdjjd1LmPyDS9qAuXF2Cq8uOUdJ7XBp6hlc+rHa+PE0pl6rQAGuTuPlM9f1Zn54UmnWCvCzRZw+JA9xyoC/ao4RQgghpOqsqFG8eOoZvCDGx03hBpbeuIRXXxrBE791H5rf/xEcPJWPGL27Aw8O3ovN2IS6Dz+Ie+vMYbJxuLGIS199Ab/32/fhixGjy3c8MIB73wVs2vIAHrynAgXY0obOrjuUJm1G07/oUJoV5Pr3X8XEH/wuuh4+jZJN759dR/7sMey999fxyEnnIY4QQgghK8fblhVmu7r8aAqPtP02TntGcS9OLgygyeyVi4wUdw3L1h3oeWYAbcq4cbiB//xGDrmJlzH1fWf0Tsj0jeOlA03KcCHrEXGfaBmY1ts9YwsYaNabiZRzTfWZQ7ZhN0Zls3UIM892IpX5rQz63Jc+j2P/12nM/cgc07ThyLlhdG4xu4QQQgipKis0UnwDr33xScsgXgluQab5XtzT4v7a0LnvcXxh8luYea4fTe9wQuWHP4FBM8VNyJrnR6/ihaeMQfyeTnS2OocJIYQQsrKsiFF847VnMPini8CvPoSH7jEHbyJ1LQ/jxJ/0ol7v3cDpoy/gEl+oI+uCv4vNzQ9g4E++htlXhvAbjeYwIYQQQlaU6hvFP34Vz/wfI1hEBp86+BDeu0p+C5vu6cWn3FG2xQnk5s02ljCxz305L+Llv6tz2g9074Pb9AoVOtzd92HvYyOIfSfrZ0t47Vl1TYezEkHj+7ah6/EJXLpuvxgYfFEqvKrCjfkJ/F6nc33zH/u5WpqdwDOP7cFHt9/phW/u2INHnn0VS2FDfzbrhek7pTL747x6IPht7Lxbjt2Jlu4nMPGGP2q+NDOCR7pNOSXPj72AOWtQ/cbME54MPnoib44GuZF7wqT56/jiRXMwCe0rK/6+HzH5Mnl78LeR/WqUD3g8l47fZ653Vn/4gZGp6zohjHa7afjyL1zR4gZe+31Xvh/Bl7+vg4XI48sfM3H9+jHzkCUuEubYvgnjN+weM64TQm4QLW44lc9EtjyAz419Hj07Mtj8c+YYIYQQQlacKhvF1zF1sA+ji+LL+yT6f3WzOb4a1OHeD91rthdx4T+keNVp6TT6tu/GwT8+jVffWPINtB/l8epLWez5JxFLeP1YGUH3b8Oep9Q1ri/zj5cw95VBfLQzi8kfOocSufQC9vxvg3jh28711/8//QdLL/UpQ3YQX3zpVVy66puL8gLX6af2YEd/wpJy16eR/af34ZHhKeS1b+oNZWC/gIMP7sYz376BRWUY7vhkFqdnTTklzy89ga7OZzBnktrU3I5O44ZySeWh0CxWxqQycDX1nWgNv2kWwdwfbcPO33oCL0xdMvkS5CXJKYw+fB8+mnJpsxvqAeCRzzk52rRjCMOPNOHv6L1y2IR7PtpvZhYuYeLfRjwAyEtzxuhv6nsQd9BgJYQQQjYUVTWKF089gke+qkya9/Ri6NOr/3Jb/e2WlZbGfeJn/xV4173oyY7j7Le+i/mFBcx/71t4KduJjJz/8TR+78v2SJ88BHwCo2ZkMbPrcZz8y29h9pvfwtmxx9GJEYyecs4l8eXPZXF9zzDOflelJ2keMK8jqjxvbunFkbFvYNY9980/x5FdOje4cVYZlzEDj6/9wRN48X8ZcPJz7mv43B7nGhnx/OK//Aj6Bl7FPY+ocqq8zkx+Hg+9x5z+/jG8cNYY95vuxW/8c8dUxMUJvBYeQb2ew8tfcTZTG4r/DbjjwwMYnjyPi99zynRx+gQ+1exoS374GF4utvTYDybw6d4RbaRvem8/TjzTiXqVdt2HP6dl/9K/ch+GgIf+xKmP2W9+Dg8mvel2Rxs6TVEvnX5VPUYFyf/bCbPkWjse2mkCRtKEh3V6w3jIHME9j+MlfUz9VLsghBBCyNqjakaxjNz1DUzjhrhNPPWw96LbqvJ28zct72rDkDLQBnY1oX6zMel/bjPu2NWPHuMbfeO1f++PmF55GSPyEKDY9OHP48SRh9B0+2Zsftdm1Dc/hCN/pgyjFHK40TiALwy2oT70FLH5Hw9h5rkBdDbXw80O3nUHOj/TC8fsu4HXLkWMaipuvPshDD/d6+RnSwYPDH4eD7u23PfzuPHPhvGF/aqcKq9173kA//qzD5uRUuD0RT/OOz6s4tBbl/Dya0FT8frM13BabxUzFH0y/+wbeOmZXrS+pw6bjBG96bZ78fD/7pqQ03jjPySMFcvIfM8gcvISp3r4OvFvLF3b5Mi+7n/wBfl3NjvH5OemF8nP3YHWLlOGb+fwasAwz+O1l8wqxDvvQ6u34kk0m3R6v+CPXG/ahDqTh81roV0QQgghpIDqGMXeyN0mtGafxcO/GrLuVonrS9fMVko21aFOGS03rlzCa199Ac/8wRP49Mc+go9uvw8HXzNhLi7CdbtdmssZn+RN+PjHH0Bd2Oh6Rxvau8x2Avf+RhsyEQbbpjplOP7sBhYvvorTX3kGzzz+2/ioyk/L/YN41YS5dNVyArao73oQTXY1KKOv6UNmW5m/nf/03uBIfuMdaDOb+Ol/NRuK2x9UBq+zOfdn09YI6nW8NuWYxGkMRZfNqky4sYT87DQmnn0GWfGX/th9aP7EiAkB/Oe/ji4TfrqIiYfNyLyS7ZHRgao+fN2x030AmMbUjOVu47lObMJDXe1YTacgQgghhKwMlRvF1sjdph2P4/GPphsxvBksXvF9CzK3pVgl9seXMPrJD+Cuf/IR7Hn4CXzxj1/A1MVLytiv18ZymMV594Wue5GJKfamFKPV7425+MbFEey9907s+NgePPL4MXzxK1O4JKO4W5SxbMLEkRHjM4Sfl634xbARu8ka2fz+ovWxic1o32VGcb/9MnJXnE38KIeXvyobpRmKi2cG8dG7t2Fndx8OPnUMo+IvfXEJde8pHkPu8X04eFZGkevR8ydfQOdtzvGqcXsbHvxVZzN3ZtqTweJrLzuuE+94CA/cszYe+AghhBBSXSo3ii9Nej61N84OYsevmLfs9W8bDuacc8AIusxxvTLCSvOzS8idNOOayphpK+rKuYTTD+9Gdua6Ct+ETz3z59rfVvxeL577Ev7FPzTBbhZXT+PTD2Xx6o+U2dncj8/939/ArPZz/i5mnn8YN3Olu033tBs3kDm8POPIVFwnpmSjBEPxxrefQd/vTOhPLIv/9YnJ85j9jvgVfwtnjnSaUPG8/4Ntjm83FpH7f1fiK2/1eGBvu7OZm8Zr+kVAldafOQ9X9f/8QTQluWAQQgghZN1S1Rft1hL5L/+feMbYxJlPdaKo3faDabyoRyGBOx55Eg9/+A7tb+v4oarjERbYps3uCO81/LfID5Vcx9KbZrNEFnMTjt8s7sDAkYfxwF312Ow6Fv9Mv69287BeuHNcKK4jN6VN4pIMxblXjhl/7Icw8MRDuOc9db6P7U/N3wTeueNhDP22YxbLR1m6/iDdShWlsLnlPjhm8RSmX1MPSFem8fK3Zb8JvUonCCGEELIxqdwobnrYvN0f9ftzPO4NaT6EYXP8cx9O9cHb8vjZdcwd342P/r5xnZCVMPakMGbezHt+ur+wKWRB/+BVTLk+xRaZ97peuJcw8m9eLTTQvi8v4pntElm64uUGfyeUncV/O+Xl9WbhvXAnLhQzk3j5jOyUYigu4T97q1dsCrmVyNJuk2Y7iU1o+syzOLJDBHIDl/74E/j0qeDLfxXzrnZ0/qazeVpV+tzMy47feGsn2m/XhwkhhBCyAancKP65Td7b/YW/Osugs8KZY4sv/S5a3teA5s5jmIscaU3iGvKzr+K1Gfd3Gl8e+l103fsBdH3OjCC+pxNfSPsyVn0G7rc+Xh0dQe6KiuFnN7D0/dP4PfGZNudsNt3zIHrMYPHin/aha+g08lev4/qPlpA/+wy6/mkWl8p8Eaw+4xrcr2J0dBqLIh95Qe2rT6DvkP9xipuG98LdHF7+gwlHHiUZinXY2ugqwwsY+fIlLEkl/XhRPcR8Gn3yBcQ0/Fw9Op/5Enr0EnI3kBvYh+xs8HFk0zveabaAqdNTWPzRdSzNnkau2FJvmk24p/0h9b/iq3+Okdech6v2j3aoEpTCJvyCO5GQm8Lpi0tKL/I4fcasYkEIIYSQNcUquk/M4YXHTmNJGXvXv/0MRs6W6md8CaMP78GeT7q/38UTf3oac9oPdBPu6BrCSxNDaE/7MtYWZfT9pjHavv8C+v7JnWj8lTvR0vG7ePWDQxhwLWabTU14+Ol+3KEN3xu49Ke/i53bP4BmeZHst47h+se/hC98XIcsmbqdH/eWc8uf6MMO9fDQeKeK9+FX0Zod8Az4m8dmtO58QG/Nfbs8Q7HpN9QDit5SxuzvfwQtd6oyve/X0fVF4F8f7tVnUvGOJgyMDqFVyyeP0d5PBz6qsvme+/CAkd3iV34bO+7+AFq6X1aPUemQh52P6+unMCUj4u94CA99qNQ1J2SJN3dt6GlkP7ZN6cV9eORiwXwCIYQQQtYAq2gUN+Ghpx/Qqzps/tWH0bujQpeKd9Thjrva8dATn8dL576Llw534o6S7JhNaP3X38CJf/kAmrY4xvGmLSqP2T/HyUfa4I89BtnU/DBemjyBgY82eStUbH5PO3qekeuarFUZMvjlUor4jjb867+0492EOln7+OVxDLSUaqBVh807Ov11l8sxFN/zEE78P59HT3vGyGUzMu0P48TkMDpd+zEtt3XiCyO93kdVDvYMYso1jN/VjiH1QPRQs7tKh8juDvyym/di/FwTHnQ/WqLY9BvtweXtUnJH35dw4l+0I+Ou9PGuDNozK+g6RAghhJCyeduywmyTqnMdUw9/AJ/WfsW9OLngjpSuU268it+7ew9e+LEyFPvGcdH98h4hhBBCyDpnw64+sSa48e/x2lmzfU+mRJ/UtceN2SlMaN/vevTvpEFMCCGEkI0DjeIV4wYuPfuMHlUVmnbeq0zJ9cwSXv7TF1SpFL/aiwfu0gcJIYQQQjYENIorZO54H37vK6cx931ZXUBWnriOpe+/ii8f2q3X0dW84yH0r6Ev/ZXEj1WZrl7CxMAnzIdYMvjUwc51buATQgghhAShT3GFzB1tQNew2YniXe14/IXP4+PecmTriKsT6NtuL0e3Ca3Zr2F4F01iQgghhGwsOFJcIZmdQxj4zXbc8R57JYbNyNzVjp7sOGZe/eP1aRALP/d3zYasEPIABp77Bg1iQgghhGxIOFJMCCGEEEJqHo4UE0IIIYSQmodGMSGEEEIIqXkqdp+4+KVH8fx3zE6Au7D3s3vV/yvMd5/Ho8+hwrQu4vlHn1f/G963F5/9RJrY5Lqvof7AY/jgLU4c+ORnsfdOc3qN8tZfPI2nr94XU8a38PWjT+OM+03kW3bisQMfxK1mN3z+1o7H8NiH3LPFri1PzpLfE9hjpWMjcV7A+9PU/7Wv42mlK3uS8qQIlokQQgghNYEYxdXh6vJfPvXI8nMXze7N4K2/XD761F+qlCvj6tRzy3/5ltkx5Tg6lSbWv1p+7pGj1rVpKOea6nJ16ujyIyf+yuyFuPhcoA7/6sQjgbDBfSmLVedFri1dzk78j6hfVDhdDn3+ORUyGZ0XCRvWF9GhFNcTQgghZGOzzt0n7gyN+pXHrR/aiw/eYnZUbB+8/y68NfddvGWO1BR37g2MdN/VsRO3fueCGUm9iAvfuRU7O9wx2btwX8etuDhnxlkTry1VztbI+/vMIQs92j33fjx2QKVhjsWhZzOwF5/9ZMxY8i318LJFCCGEkJpkhY1imU5/FI8+an5f8iepxah59EtfN+efxtevOWGf/64YQ3Z4Ow4J51yvjz/3NL72XbMrbhRHv46LEm9EemIY2ftJvPWmSuSXbinR2Hbzb3a1Uefm+1E8/RfK9JPpez1V/xbOSJlUfh2DMCSnQDnVWS0rdVVM2cJp+fEaRDbe+efhZTEN1xbxlms0flcZuLe8H3daFuSt73t/wPANYF8bQbKcxf0m3hXl1g89hs/GPRDp8vouEXd94rPxbhqSR7NJCCGEkNplBY1iMfSexoUmZbwo4+azn30MO9983jIaFcqYkpFAOeeOIF58TvxD5dhe3PUdMW5OmDAyYqiMyckEw/baGXwNe5z0ZARRXR9ILxUX8bXJt3BXU3Ff1yQuful5XOvwy37fL6mDt3wQj2nf11ux84DkUYw6R05nfmmvCat+n7xFGc1BP1eosohfrRufyFIb2oIyVl0ZabmJHOyHBe1zbc4fqMcFVb50qLy9chG3Nt1Z4gOCUOza6si5Kih5Pe0+NKR8cCKEEELIxmLljOJr38WFa3fhPu+FJWe63JtqF953nzWd7nDXJ90Xpu7C+2Xa3AqjDag3r8WP7N2yE3vc9JQBep+6/tqbTujE0UIPZ8pejNlqvCz31lV3uPdW3HVnjFlp5LTXztud92HnLRdxwTbo37fXevkr5HoQcFtw5OaWW+R9a8d9RqYKJZc9HTF5CeAb66W/dFbs2urKuQAlD/1wYHYT0WHdBwrnYYOGMSGEEFJ7rKBRLNPSoWn955SxkWTUhrhly624dUvc5HuV0VPuspLEZ6uy8oAY4Xshcapyh90ZbCJdDG7FLb/kG7aRqGv8XIoR6svZXw3kLRWHCvpLJZZHu3k8jcX70zxIKOz8F7u2ynKuLuph45NBP2hCCCGE1AYrZxSL0SZLcnmjcOZXhRfjqo4Yaq/Uq7z6bhzVQI9OqzI/1nQBT8cZxiInZRhbLsQeicas5wvrjMpqI9TI2H8xLdq4vnY1wdgWo/boIu6TeMKjuBF5fUsZkG+5fsFJ1worJOeqYxv5hBBCCKkJVtAovhPvxxmccP1eV5n4F+0c39e77k/30lY6VJxf8o3gW5XRGIvISdY4tvOm0nz+O3fh/bZh+Z2vWS/fqfDPuXm+hsVrt6LeS0JWiDCbChltf2vya37+leH6tch1pR0uTp4BbHcLG+2SYuc16BeceG0xOVeTEursrb/4uhVO5fE5VYayfKgJIYQQsp5ZwRftbsUHD+zFLZPWigkytV/yi283h4vP+Xl0fsEVIErjVtyiHgi8l7fkRTdvhFyWMYO1+oTIyfiy2uHDPrHvez/g5dH2x7Xi0+cuqLD6Co2s0vBYxzXfjUXFLcuoJfFWqM7k59bbXZ+w81r4sZKka4XqyrkaXLBcfJwXQ9eeWwchhBBCVpqKv2hHVh69Jm/sF+gIIYQQQkilrOBIMSGEEEIIIesDGsWEEEIIIaTmofsEIYQQQgipeThSTAghhBBCah4axYQQQgghpOahUUwIIYQQQmoeGsWEEEIIIaTmoVFMCCGEEEJqHhrFhBBCCCGk5qFRTAghhBBCah4axYQQQgghpOahUUwIIYQQQmoeGsWEEEIIIaTmoVFMCCGEEEJqHhrFhBBCCCGk5qFRTAghhBBCah4axYQQQgghpOahUUwIIYQQQmoeGsWEEEIIIaTmoVFMCCGEEEJqHhrFhBBCCCGk5qFRTAghhBBCap63LSvMdplcxPOPPq/+N2x6N967sxe9/+hWcyCG7z6PR5+7hp0HHsMHbzHHCCGEEEIIWQWqNlL87n+8H48//jgefvBW/KeXvoDxeXOCEEIIIYSQNU7VjOK//fPvxDvf+U7c9msfRssv/gRXrrxlzhBCCCGEELK2WVmf4v/+Q8ydfBoDBx7Fo48+ioHPjmPuh+aczU8u4vnHH8Uzf/EDzI2qsM9+Ez81p376+gge/VfjeOO/v4WvH1Xnnvsavv5HA058R/8Mb/xEhfmWCvPoCL55w1x045sYefRfYfx7Zp8QQgghhJAEqmwU/xR/862vYeav341f+V//J7xx8hl8+dIt6BrIInvkMXzs3Rfx5eOn8QMTWiPG7hefx+Wte7H/Q7fhrve9F/jeRVzQBu7f4N998w28+9da8F43p//xB3hn52FkBx7AbX89g6+9+kO8/c73q/Nv4OJfOab037z+7/DGu+9Gy6/oXUIIIYQQQhKpmlH81uTTePTRATxx8j/hto/24oG/v4ALcz/B7R/6GJre/Xa8fdOtuPuDd+OdP/wevnfNXIQf46++8gWcwU58+uN34efVkbc3bcPdP28M3L/5K1z4j7ehZfttTnBh6924e4uK7xd/BXf8IvDDH/4Q2NSEbR/4ebzxnQtiluOvvnMFt/2jNlhXEUIIIYQQEkvVjGLnRbvfRzb7OPZbK0+8Y5OYujZvt1L928pYVn/+yyKuua4Pf+u9aPm1d2sD9y31u/I/3433/4I5F8FPfvIT/fe92+/Gu2WE+ZoY0rfj7qZ36uOEEEIIIYQUo2pGsfOi3c/j7V6MDfgHd/083vjqlzH3w5/ipzfewje//k38zd//B7jzF00QZRTfsevT2PkLF/H8F7+Ot/67c/S27S247Xs5nDh/Be+959eQyrz9+21o+eU3kHvuPK7c8Y/wa7SJCSGEEEJISqpmFBfydtzVvR8P/PIPcDI7gIGDz+DMT+5G76c+iMAKxn/rVnzwU3tx1385gy98+SL0uO8vtKDlV97CW39zN7Y1vV0HK8470bLtvXjr2nXcva1JxqMJIYQQQghJRRU+3rES/BTffHYAp//efvz+b2w1x4ojK1UMvPxO7P/93Uh/FSGEEEIIqXVWcKS4TH76E/xw/jRy87eh7R+nNW1/ip/89WWc/sYbuO3XW2kQE0IIIYSQklhzI8UXv/Qonv/378Rduz6Dvf/w3eZoEfQno9/AO9/3MXzm43fj3WvP1CeEEEIIIWuYNeo+QQghhBBCyM2DY6qEEEIIIaTmoVFMCCGEEEJqHhrFhBBCCCGk5qFRTAghhBBCah4axYQQQgghpOahUUwIIYQQQmoeGsWEEEIIIaTmoVFMCCGEEEJqHhrFhBBCCCGk5qFRTAghhBBCah4axYQQQgghpOahUUwIIYQQQmoeGsWEEEIIIaTmoVFMCCGEEEJqng1iFC9hYl8DGhvcXx8mrppT65o5ZFV5srNmt1SuTqCvIatiWTnmjjag79SS2SsXKWfKOtNlKq1+7TwunepD474JpTEbC12uo2lrOq1eVah/K4hXpyuu42tXBsUo1PUS2tmqsl7yaSilT5rNrnj/I22jaF9QjXxIHJHldu7HadtM2j65mn13KhmRmmQDGMXSgW5Dfv8C5hfM71w7sGhOl0l1jD1FRTftJgyo8gw0m92aR9X19jz6F4bRucUcKpG6XcOYf7YTdWa/JijQwbR6FQ63doyVpgML6M9vQ6PWhwGVU6Ha+ZOb+zFkzkXJqnpplfZAkxJlsLTk+2tP11eDLZ0YrqBPqoxCPZS2MX/AaRErh2obx/Po6QOmZkq7T4bvrWn75HC4StrNzZERWY+sqlG8MD+P3+zu1qO78lf2S+bqZeTRiw77pqU6qU4akhuPq/Xo9QwgUuvoG9sK60Pb4dUydipjqb6XN32yclydxhTa0bunHRgYsR64CVnfrKpR/Pjjj2N21pljkb+yXzJbtiKDEUwmTdXoaZ5o1wo9jeKe01MzztRP1zCQG9hmhQ+7aJiRt6iRYPeYpLt9EDmVvy65xnuqDcUV+7TrhAtMQyWUxRk18OPNzpjDGjcuO0z4+nAZw+dVCHk6d88reV02x4XCJ/di+Q+dWxS5uedcmVpxbKkzowTOsbiR/KQ86vTtKbhQfoJxBuXhyM6XiVPeCRPGPR6sAzstVz6+zjlltPObPDsRH3cQk285H6mDlkzD8hC8Y1Y4rdO7MYppHNwel7YbPiw3c1oRLbNg+Ci9CxNotyLH2PyF4rb0s7A+gvJfOjWIlhO2PhsSZGHXpa/DTr35cjB5Mmm3DEwDw7v1NV6YkF76+XZlbHY1wWOSh5bt0nfZebCIbGeG2HSjKew/DUnxRPSZbl0EKb+vKtSzYNvVROm+RbAuwzK3Cccdr3Mui3bcofPhdGP7hBg9DMoy2GfExeXUY4SuxLA0MwXsbEPdlja0txa5/+p8Strf03IpuLdG9Tce1jGrvgrbTfy1UWUO61usHofkF5BRMT3WbSC9TMkaYXkVadi6teBXFm+OL+/T1z+5fMEc8nj9yeBx2e8dX74W3lZce/2Ct33hqa3L+1509xQqjSe9/WvL473ueWf7ydedM0LgWp03O1/2tf6+fb1P6FxSWdTRJ5UM/Hica/3w4X0nn/715vxTfk7D6V17cV9AXs55vyz6vH29iTM2/0o24/qck/e4vBTEWyBTn2J5DMpMZGDFE8ifkwe/noy8tu5bHn/T2ddpWfsaFYdfB8E6ccL7+058obzFlEtTLG4to4h6jNFB51qJxy6Dfc7eFsJhw5i07TA67SSZReS3iBy03Kzw114cN2GjyxLX1sL14aQbyqudrwCFstDhLd0KXG/XgaQTF04I5UOFCJQjMryJLzEPOs9Kdt75kOyLpFtAuBxu/1ksnoj2G5lPO4yO090P5VsInDfxBfIQobuh/AdRaTwVkmNsWDvusMyc/aCOhWUR1klbNo4s/DYYprBctiwD9yKVlwuvm22r7MH7QBqkTH6awboTrDKHyicE86Sw8lIQl11HofoKhy24NkLPXAJhw/F6doAjezuv+jo3bDE9lnhj0idrl1UdKW5uDvo4hPdTo326FjA/htCIrHrOOzuC1myvP8Xa3IsjmMK0+1Sfy3vux3XNTfF+TSqNgV3u2Tq0qafkXF6udLZHz7ppzmFyWD09t8TEJNNOuV70W3F17u+1ro8nsSyzkxhtHUKvJ0IV7+EhtJo9l54xf7q5aY8675bf5OukPeUq8XujAEuYPjONnv2W71fzAE72me2iqKf24yOB9INuLm04ctiN25EJ5i/rJ/a6Xf3oGT7mjcTIKEWuryNi2rz0PDYdsPLT3IEe5HFZ0imoJwk7rs6H6OsPTq+r9Hz/0yZ0qLTzV6yRir5x73zTDlVGWGnY6UdRLG7F3NFtONg4XsLUucSjyur6BZpyB9yRSqRnzHI5UHXcb8cv2DIrqnchrk7g2HAwfN2uzghdUKRpa1Z9OOlOQzfrkinUPUdvJ52RIi2HERw7NYFsd97S9UKcdj5k6ZWT75yKX7eHlna0uvEqdHgZtSuWB018OyuWbiQR/WdZ8RSg8nnObpuWTqTVmXDbLAmV5wOWHEXmVlljSaNzqp8ecs9rvXDbsak/u49UW71Z+/5SOs59SqhDU7ObLwcZse6aH8JMKb7nsyM4iHa0GdmG9dFnDtntg8iMpX8vJl63i5P+PhFBlB1g7qleXSl0GjnLfkhC9dcr7d5Fqs+qGsVPPPGEZwjLX9mvCK2E53FkfreZMlnC5Xl3qsad/lBGQ87c+CS8a0iHp9YisKdY9NSNIXDjkYaU1Bkv5v2pbPfXPeLdmOJJLsvSlTzQuDV9xxZG8tWaQb3ZdajD1ka3w15EPteGTDBACVRyvW24yY0DOLInqqspIw0ztefIU6YiDZHySIMzZefWkUwVxlKfQWtJaRSJe3i3c4NLbRA7yMMRjMGip0XtB68qUJ9pM1sRFNW7EKXUS9ltrRxE94DRbistrU/+Q448VGUGBpEPGIxhnHaeuT3UkkVX3Bu3MbAdA1Aewl0jrHge4kmRbpjI/rOMeFLh6ISmVJ0pF9sFRLsgpaAinYvuv+puz5Sts+J3fxKOi0GBq0huEF0DGZws8WVMMVTl2ha3fMY961jITWG0e7fS9fOpDWJNrG6nIe19IkSMHRB9T61HpuwHZ7IeWFWjuKGxEV8ZG9MrRshf2a+c4CiudJQ96knVW5nC/PzRITGk1bFz7ZjaHm8Yi0F8LHPeu35GPb37SGN0GrJ0GD07EhqiNoSU4WLi8X5FO6bkskR2nLqDTknCTcu5wUV1Bs4NMB2VdSYyqqpHmmQkxhqlCFJiHsUg1qsXuLIMjQSH5aFf6kxCjNbgSijpR9KLkSLuvnGcbFQ3q/DNrxjiF6hnHJwbSewsR5ks5v0HyAKK6l2IUoyrsttaOYjuyehmKC1rVYKlU8eQ7+st8mJSgnFnGYLSHvTooX4Id0fDiuchnnTpFlDQf5YZT1GsdlyqzpSDGMTHM77unCucdYukIp1L6CMrGPBwXkhV96ydU8G+QeXzZDavjMFS/F6dmdACHRsrnAnoGZOHwG3xPtExROt2OtLdJyKIsAPiH0YqGRwia51VNYqrgjJssoFG50xBtRqt1Q2sO7rRL53K+kawfmEvjvDoh5OGjdOQs/rJNnHqWRsggxgssaMQksri3CgGMeJNHzruCqkxL0x02S99qBtDl1ce52Y3etzqVGUazbK6dSdiTX3Ji0r+eeNmYudf1d2EPd2ZhEyPqm5u8NAgMrZ7RIDieQwQHnGSTthsOq4MwdGPuRPFRovCIz1yAzGbFZMubj0yVLJhLHUDTJ0YKe1GEkNQ/o4OxY72FNW7EBHhl05NRLeJCtpa6TgyPHgoRu6qTC1n2jF0YABDYojY5Q2hb+wDg9YDumrLSu/1i03miNZP1daygYfwInkoQqp0LeL6z6LxhF+OVv3AoDXz5jCNg9ZLjrovgXEPK1VnNI7B6bvxzCErI7gxhEcJ9VS82U6kIp2L6CNNPhMHWmJRcj/q64Lun0PU7xrGTNgw1rNnMQNE2qUgoo8QfSxwK5AlHcswjCN1OyWp7hNBYu0AXaZgXTp6aMpfTI+VTvJFu/XH+jeKlWIi5FIwtfM8ht2bsHoCdBq9e179jMFQd7u6gchbu/r4bsDyhdRTyjpeZ/RD+4V505KDyDeGpoR1Qx5BPjz1bKaDdPq6E1dxPet0FF5+1C/+zWaLhLJIOsPnhpC38oj9KUc3NJIvx/XEi7sbOGn5RHkGl3v+bEdwtFLl76RbVvUbRD+OWBmQdSYD+d8+JfeqlDg3/FwRf9eiebTRHagdFtZIserQlTxt3ZrcEeFTHED8/2ydmgSqNlKcPu6mA6oedbnMja1ABwsRXz4o/U2+kVh5SDC6e1Q9DRqZNYr/rO0bWkBxvQtSGL7ljKtG4fxV0NaKUigL0e+A7slP5C1Ghhg2RrZ1u4ac/Ju6cNyvnPLovMmo1VjGqutQn6ZxZqdG5+33CBLykIZU6frE9p9F41Fta8zqTw8B/YGZN6ENRzKT5npxV7On+UvVGUFdc9huz5PoUHmIw64T+Q3mMyn70sp0rqCP1HJN8slNapN12Gr3byKjiBFrrTOmf0jOpzPQEu3j67gu2A8yDlY/avIXvLc6oYJE63aYgnajSXefsIm3A3yj3jknfU275X+dRo/JeuNt8rad2SZrDlkORj4ekGb6c+Mjy93oDxKU6DNbNcS4CXwsggRRN03j4lGSHyEh6xn2C2uKNPcJ1x0y7oGP1C7rf6R4IxM3VVWL6KmplC9OrAjOFHDqt5kJITVBSasckJUl1X3C8Yuu9rsTZGNAo3gton2RGpyp54Slm2oDGX1UstBL+9zMEXOTrpk20yt9lLTUGSFkI6M/1CBT6uLawX5hlUlzn3A/xCGrYiStAENqGbpPEEIIIYSQmocjxYQQQgghpOahUUwIIYQQQmoeGsWEEEIIIaTmoVFMCCGEEEJqHhrFhBBCCCGk5qFRTAghhBBCah4axYQQQgghpOahUUwIIYQQQmoeGsWEEEIIIaTmoVFMCCGEEEJqHhrFhBBCCCGk5qFRTAghhBBCah4axYQQQgghpOahUUwIIYQQQmoeGsXriiVM7GtAdlZtzmbRuG9CHakCEldDFnNmdz2ydKpPyWMUf+rKZ01j1SMhhBBC1gQ1bxS/8sor+KM/+iP9d8W4OoG+qhiddeh89jwyxxvQeDyDmWc71ZEKkbxJXAsDaDKHKmHuaAP6TlXFVE+PMupb8v2Yf/YB/I/mECGEEEJIKdS0Ufw7n/kMxk+e1NvyV/bXPmIYLygDsAoGsaYNQ1WLa3VYqu/F/IFqmPSEEEIIqVVq1iiWkeHr16/jueefx2eUMSx/Zb+8EWNnOryxwf31YeKqOSWuCdsHkcMIuuTcUXe8eA5ZL7w1uhrlFuEdk2tU3KfE3SFFXN40vX3eypucP7QNI1HT+In5UFeKu4IXp4yCO2l1DQO5gW1eOjqcl08h5Drgxil/3fgC6Zoyz8pou52eyxxGlHz9Mglx5RUS6iqCwnK6JMdTOGJuypGQl7A7RTDtUHxGbhMqHffaorImhBBCSCw1axTn83l8oLnZ7DnIvhwvDTE8tuFg4zjmFxac31gGB7cbA6p5APPnhtCKXpyUc3pEUwyk3cCYCb8wjsyAMeyaO9CTm8K0Zzyp+I+PoGe/O5o7jYP5Due6YnEZRrsn0aHPLeBkn7r+UMjYjSIpH1cnMDiQccojv7EOdd4ZwT7ZB7Rmz6vjw+jc4lxZlNwgWs6aMkkeG9V+wLhTeT4ODOnz53GkVT1gBM4HiS9vkboKE1lOocR4YhjtHgQOm+uVjuS7faNZDNwWO21dr9uCBq6SW36Hc34gqMqEEEIIKZGaNYozmQy+NRscQpN9OV4SV6cxlVMGrz1939yrDbfJuBG62UmMtg6h1zNkmtCbBaZmxHRrQocy5JxthYm/wwvbhiN7rLQS43LoGfP9hZv2KAM9l8ei2Y+nWD7yuOwazM1NXvxlofI/Y8lP53F40jIwVZkPuw8Fyvje3wvMX4417GPLW05dRZWzrHgK6RmzHhy2dKLfk/cSps9MB8rh1GsbRs9aZneg3gkhhBBSCTVrFN9///3YvHkzPrl3r37RTv7KvhwvicU8cq0Z1JtdhzpsbVTm1JVos23pSt4ZHbWmxlsGppHLO6aqGHJQRpE2j2amgGxvrNFZLK5KiM2HMuCGz7Vjars/dV9VtmxFiY8m6Si1ruLKWUadp6E+02a2FpHPtSETTAB1tyupJDwMEEIIIaR8avpFuz9UxvDuri69LX9lv2TqM7Ejr5nbo19f08ZNnzX17v7ckcctbVCmGKavyogh0N4S/xpc0bgqISkfYjDqtMaB7iobxlcvo1QnllSUUVeR5SwnnhQs5qfNVj0yrdOIfK5p3GpGzAkhhBBSTWraKBZkZFhetCt5hNhFDMewj+tsFl3DtqtBCPHXHd6dYEjWoW0nMHViRJmk7WhL8s0tGlclxORDlc9PTww4sxmBNtotV4ilU4M4mDM7LrlB62W/JUwcGkwcHS+bUusqrpwp4pFR35wZZRfmju7GqNl2GT1u+Xab6/t3ickrcm/DaHfwhcJs9wh6dsRLJZWsCSGEEBJJzRvFleOsHXxkfrfnvtDYDZy01/3V/qL26hNNGNAvVpnw+hdcmaCupV0ZOCPIeC/YxVE8rkqIzEd9xkpvG6Z2nvde9NIuF9bqE/Ki4Um37Oo3iH4cCRvRrUPInPXjkxfYhrVxWG1S1JVNbDmLx1O3awhHVGldt5bJHePoMedcetQDx6B3fR5HztnXD2Mmm/fk1mhepkx8oS6NrAkhhBASyduWFWabkJvPbLZ6HyIhhBBCCCkTjhQTQgghhJCah0YxIYQQQgipeeg+QQghhBBCah6OFBNCCCGEkJqHRjEhhBBCCKl5aBTfDGSFhX2yJu0SJval/NDF1Qn0NTjr1M4dbUDfqZX7jtnSqT6TvyBeulZePKRMRZd+m0PWCqPTsdf2JYQQQghZI9S8UfzKK6/ozzzL3xWjeQDz+/NoadiG/P4ia8266E8MZ3CsoQHHMue9dXurblgq47Yl34/5iCXRmg4soD+/DY3b8+gPrOWrjF1ZRm1hGJ1JHxYhhBBCCFkn1LRR/Duf+QzGT57U2/JX9lcMMYwXUhrELuYTwyvzIQuHpfrexE9Ci2E8H/64xSzQwXWFCSGEELKBqFmjWEaGr1+/jueef15/5ln+yn7pI8auS4Tz1/n6WNBFwhndnTDnXXeCYPiC0V/tsuCfFzcGcWdoGZgGhp0vqXlpaFcGN6zt0mDcF2btuIKfDh7ZPhjjAmHKdcpca9wrdFm6d3tfTQu6ggTL1HfqsjkehQlr4i10EQm6XhBCCCGErCQ1axTn83l8oDk4bCv7crwcRrsHgcMyqqp++rPLIYNueMqcF5cDMQidzwbr8AvOJ4M9A1MM4u1TaD9n4lsYR7s6LKO2M9k2oG9cH9ejzmIQ608Mm7BjGRw8ZPsHT+PgcWDITad1BF0luF+MnjHX6pHhJUzn2zFj0pK8jB530wqXSVwvBjGqz4VxwsrnnKPcNgghhBBCbjY1axRnMhl8azYwzKn35Xg59IxZ/rVbOtHfN42pGWvks6/fP39Vncv1ot9zi6hD5/5ejJ51jNW5E8rAzg5Z/rpN6IxxoZg7O4LWbK/v3tDciyOYwrRnkLfhyGHX8HTSwfxly2hOpme/bbSq6w/4+3Ut7WjN5bEoOwVlEiN+HD1m22buqDGIE9w2CCGEEEJuJjVrFN9///3YvHkzPrl3r37RTv7KvhyvBvWZNrMVwWIeOYx4Lgj61z1ijNUlXJ5XRvvt0UZwECdsbmCbH0+DMjhz08hrS3UFsF01tg+qchikTK0Z1JvdWIZ3o2t+CDM0iAkhhBCyhqjpF+3+UBnDu7u69Lb8lf1qsZifNlsR1GfQ2qoMQ+Nm4P20K0EdtjYC+StpxnKdsD1joXjUr6QX+tIiBrFedcKkc24IreaULpM7auxy9TIKnFH6xnGycRAtEUvAEUIIIYSsFjVtFAsyMiwv2lU6Quz71iqU8dg1HHQlCLClDe0YxGDM2sNNO3qRG7BfgJvDRELY0e7QGsIrxNIVZeI2bvXcJ5ZmpvyR4i1bkcEIjln5FDcQ77yF+EaHDWMZWc+dmfb2547ujvFHJoQQQgipPjVvFFeLnp3AoOtW0J3HkXOhZcwC1KHz2XFkAm4P1koOsnybvDC33T23G3njTlG3qx899uoTKuxMNh90xVihUVg7bfkN5jP+SLEq7cBCsEyTO6J9ioWmA+dxRD0YtJgVJup2DZn94tcSQgghhFSbty0rzDYpC2clhdQf5SCEEEIIIWsOjhQTQgghhJCah0YxIYQQQgipeeg+QQghhBBCah6OFBNCCCGEkJqHRjEhhBBCCKl5aBSvBFcn0GeWGotHVq2wlmFLxAorH9AIL7mmvzJXJD2dJ3c941LSJoQQQgjZ+NS8UfzKK6/ozzzL33JZOtWHxqPW5zO2dGJ4YRidW8x+xci6xueROd7gfFFOf/nOZQ5Z/ZW5aqZHCCGEEFJb1LRR/Duf+QzGT57U2/JX9tcuYhgvmE9BW8wCHeFjhBBCCCGkJGrWKJaR4evXr+O555/Xn3mWv7Jf6ojx3NEGtAxMA/ZX5mT01nZn0K4Lzpfa/DAhTJi+yM85m/hOiZuEisOMSusR6u7d3tfsgvHKNVaaM+ZwFIG0Q3kXolw2CCGEEEI2EDVrFOfzeXygOfgJOtmX46XQdGABM9k2oG8c8wtRX7VbwsShQWTGFvT5+YVxdJgzHmKUbnfCDO+KG/OdxsF8hxPHAfmA9BKm8+2Y0XE6eRg97hquYtjuBrw0zyNzZhA5fS5EqrQJIYQQQjY2NWsUZzIZfGs2OGQr+3J8JchfccdZm9AUMJyVAWuM0uTPRLfhyB4xhl3q0HnAd5uoa2lHay6PRdmZncRo6xB6vfhU2MNDaDV7PmnTJoQQQgjZ2NSsUXz//fdj8+bN+OTevfpFO/kr+3K8ujgvybWf2RZwfXAZ7d6NfPZ8eUapXnXCuEgo49YdCV66kgcatxb1M64obUIIIYSQDURNv2j3h8oY3t3Vpbflr+yvDOYluYUFnMTugGHcMzaOzMC2GF/iBMQg1qtOGBeJc/5IcN3tGWD+ctAHeDFf4D5RdtqEEEIIIRuMmjaKBRkZlhftqj9C7DKHrGUE12fazJZLEwYWSjdOw6PBSzNTvtFbn0FrbhAjnnfIEiaOj5htm6i065FpncbUjLuv8t8ddS0hhBBCyMah5o3ialC3qx89gdUnbJSROe+ck1/LmXbM6BflbJRxem4IUMZp2lUe7DTlN5hXhrA5p9dJVvHlu41rRcMgsD/Kp1gIp+34H+t9fe0kOsZ6TVhCCCGEkI3J25YVZpsQQgghhJCahCPFhBBCCCGk5qFRTAghhBBCah4axYQQQgghpOahUUwIIYQQQmoeGsWEEEIIIaTmoVG8FpEPc+jl0ZYwsS9qmbdymEO2oVpxrRL6C35ZfONUX8GXAdckXj0SQgghZK1T80bxK6+8oj/zLH/XDM0DmN+fR0vDNuT3L1ThM8xiXB9D5lw14lJcnUCfMk5vqlkqaeov+A3gTnOIEEIIIaRa1LRR/Duf+QzGT57U2/JX9tcMYhgvVMmIVbQdHkbnFrOzLmnD0LOd3hf8CCGEEEKqSc0axTIyfP36dTz3/PP6M8/yV/ZLHjHWU/rul+PMz5syd1wWCo5HjbRax5a0e8CEdp1obOjDxFUJ4LhSeHFZ7gNO+DnMHfXP25+MXjo1iJYTEeO6RfLhbPtxatcLKe/2QeQwgi45rvMh5XTzaQi4DrjnbXnY4V03kYTzh7ZZn612iCuvoGXixVV4PkBUOQ1J8bhy94lxd7F1JOxOEdafQHxGbqdMGDkXUWeF+SCEEEJIqdSsUZzP5/GB5uAwrOzL8ZIwI7rObxw9aMORw2ZEc3YSGLPO5QYdw25LG9pbRzBpGU9zJwaBbC+8D0APTwGH5ToZ4RVjaxumdp43cZ3HkfndQeNreDcmd5i0xnqRGxgMGqlRJOZDDNFBZKz8d0gAKe85+WR0L07K8YJPVscxjYPbJ9Gh45I8ZtR+0Lgb7fbPn+xT4Q8l+OMmlFeMxJaBjJM//RtHZmBbobGqiSmnnCkpnhhUnbec7TDXq3I1qn3XgBWDuDuPI+fc+J16DRrwSg55c31qWRNCCCGkVGrWKM5kMvjWbNC6kX05Xi5zR3cjnx3y3RSUAem7PzSho08Z41fE4KlD2842jJ51TcI5TA4rA7XFcg7o6/fjuTqNqVwv+ne55+vQub/Xul7RN+6n1dyLI63TyC+a/ViK58PJr9CEpopcOdTDwrkB3+jXeQwa5D1j/vmmPcrwzuURW4TY8i5h+sx0IC7Je2/WLmchheUsL54CWocwYxmzulzDk/phYO7sCFptfTH1mlPp+maxktse/3pCCCGErAw1axTff//92Lx5Mz65d69+0U7+yr4cLwcZVezCOIY9w1VwptPdqfGuYXNYUberHz3GOJIR5VHbCA6zmPfdFdxf9wgwf9kynsojPh/KQHv2PNrPbPOn7qtKHbY2ms2qsoh8rg2ZerNrqLtdPexEyiuunKXGk5ItW+E8di3h8rx6OLvd1hdFfSb5YYAQQgghK0JNv2j3h8oY3t3Vpbflr+yXxdUJDMo0e2B623F5kNUjvKnzPnNKIyPHzkipjBj27EgYDRRDSUYcTTzeryovniXlQwxGk3fsrrJh7BiF1acembhR8satMfKKKmc58aTg6mU4DjrOQ4E/Qm3RmlGpE0IIIeRmUtNGsSAjw/KiXbkjxOJykN0uPqn2NLsQHmkU1wSzaWjaIS4QWXW8Fx1Jrgni+4tBDCa9LFYB0flQ5bKM4PpMm9mKwjEgp2bc/KlrZSQ7wDQOWi/7yct/BzGE3opcMqIwLiHdtr+yk5/oB4+4chaPR48au6PsCl2mnNlxcf3INY7/sus7LnIP+n6b8yrdWKNbjzRbbif6gWza7BBCCCGkXGreKK4U8SMeVX9Huy3XBr06gPifAge3u8cmgcBIsaK5Az3DI8jbL9hFIiOZzktefhpV/BBHZD6UoTu/20ur5Uy77xu7pRP9ffbqEyp/h4cAL3+T6BjrdcJ6tOFIZtKPT0bWV2iJtbpdw5jJ5i13k936hcfo5e3iy1k0nuYBnHTloH6D6MeRVnPOpXUImbPu9dtwsNFysZGXFvULh/55eZky6IITpgkDSraevh0C+rNJDyyEEEIIScPblhVmm5AVYg7ZBvl4yHpfK5kQQgghGxWOFBNCCCGEkJqHRjEhhBBCCKl56D5BCCGEEEJqHo4UE0IIIYSQmodGMSGEEEIIqXloFBNCCCGEkJqHRjEhhBBCCKl5aBQTQgghhJCah0YxIYQQQgipeWgUE0IIIYSQmodGMSGEEEIIqXloFBNCCCGEkJqHRjEhhBBCCKl5aBQTQgghhJCah0YxIYQQQgipeWgUE0IIIYSQmodGMSGEEEIIqXk2hFE8d7QBjQ32L4s5cw5YwsS+BmRn1eZsFo37JrB0dQJ9DX2YuOqEiELi7Du1BOiwdnzVZg5ZlWedPxsrXS8vHk6ZGo8m52rpVJ8VRtJJLjOJw5F336lvrBMZroW6jtFrorhZsono+6zjwT6legT7nUqw8l9rBOprneHlff3VX/m6W0mfm3xtoi0isi6abgl5W896VyU2zEhxa/Y85hcW9G8mm0eXpzx16Hz2PDLHlRF5PIOZZztRt6UTwwvD6NyiA0TSdGAB/fltaNyeR//CAJr00UoUPwrpNI4hc24BA83mkIvk8VwGx9TN81jmPIZ31ZkT0nAHkd+vynrAyVXtUG35p2Pu6DYt7+Fdf88cIcVpwoBqiwV6vWqsju4UktDmq05E36eO+vrs9ymEVI3mAczvz6OlwdGztdMHrE+ibRFB9WnSrovYMqQ0VtUoXpifx292d+vRXfkr+9WgbtcQjrTmcdm7AcrNQRmR5qaQFlHG+YASVp+2wwkKrY338M1rCYu3D7GjuWksoX4PO3ZSPRLbfNUJ933UZ3ITEMN4TT0Ur28ibZFZoKNEm4YUZ1WN4scffxyzs87civyV/eqwiHzObLojRKdkmsF1OSg+ahR0ychiTk9d7MYopnFwuzoWmor0wlpTL+5UjB2XPWUpI74tJ2Kmasw0xoS51pmCknxvQ1e3emqU+MLTHHoqxU0rq3KagAmr442YlomfRgqV1/z8KTLJo388boq20CUkeCwgfylnjPwL4wnWrVsO/deNzy6XkfNc7PkRtBwKyXlR8mLChqezQuUvPB+koJzmeHI8wTJqIqe97DjC+h6ux+B5R25K/3QY51wxWQdx4renTgN1kCSXYnUSKJf6JchN5ze27cbEEyXLwLEqtfmCchpZyvGIuAtw82SHD+Tb1I/d99n6bF8Xur5YOZLrwMbIypwvTYdC6Hq0rw/lIaBTrv7ZYcLphOrRKkNqXQ3lIVC2sHwj9MSnsL1oYutWSFH+U6avkmtL6udT5NHoX/AeZY5b+Upzbyiub6G6SqszBTIKXRvIa+E9M6gHEfVTQLS+Feq9cyxO9j4R9ShHJV/du9EVma+grPpOXTbHfYLlitdvpz6S9H8DsryKNGzdWvArhwtPbV3e9+I1s7e8fO3FfcsNvePLzpELy09K3E9d0HsOcmzf8vibZjeExGeHv/biuLpCCF93bXm8107b2X/ydbMn+VBpu/vLrz+p9v3r9flAvix0WOtaQR3z951yBeN+0uRT8eb48r5Aua28h/LhhLWuVSTmzSIYLpQnO80wkgevjhR2HkLnrr1+warLYHzhug+HcesgXEfevpaFtW/kFpBrWJe8fSeucPnt/Oj07XLaJJYzKZ5COUTm065TXU53P5xvReC8Sa9EWQeJaAt2WWU/Tr90XpLrJKhj/rlgHq8tX3jd3Y6WWXQ84bB2WUL6E1XOUF5j23yonO613nld7jj5Ksz1thyDfZdTpoCc5ZpIfQyWuVg5ZN87F5CdXcZCPStbh8I6YNK049LpemUzaVs6rWUTOm9ff0H187IXjMfs2zK0iNW3sLxC6RXGaZVVSFm3Rctv17XdxxqSypY2j36dKPQxKw2V5rg+H9QRZz+tvpmy2HkJp5OSQH1F5DV4z1TpPhXSA1ueAZzyBeKz45ftwLV2+YOyCBJRj3IsNl9O+IBei96EZW3FF6hnK5/B9lI7rOpIcXNzcG4lvF8KuQEzeqp+LWfaPf85hzYc2ZPSCUI9TR8b7sVJy1+3bldntAvF1WlM5XrR77k31KFzfy9Gz1rPVX3j/hRScy+OtE4jv2j2i9E6hF5bJM0D1nRUEzr6gPwV5+lz7uwIWrO9fj63dGIo22Z2LGSUszuPI+eqMIWrZDU4kPFlNTuJ0UCem9CbBaZmgk/ImuYO9OSmMG2epJdmppDr6/Dzn8vDFVNdc1NlU0SqDnwXFKeOcmem9RO3RuV5yD2v5NZvybUQpUuHXd1y4sL8ZScuU34vLkXdrv5AOQuIKmc58RSg8nnOmm7TujeCSRlRMHpr63jgvEtff5Wm+ZcwreTds99vk7o8w5PxIxBJdZLQDoSc18Dq0NTsy7CA2HhkW8nI1Vsjrw4JW+02b5WzrqUdrXZftaUN7cX6C3X9jFWPTXuG0BqQa7q+b+7obuSzQ8H6TipHkToQxHf5YON4Fd59mEN2+yAyY9Z0fMo20jPmtwEtG7e9zY7gIILXN6l+vq4MXY3SN6c/tuUZ0e8UI6lu05bfKseKoPLg9/dLmDg+EpC5tN1OOZ/m3hCnb2n7q2LMZtE178us+D1T1dkBSw+kfVr9dSEJfa5sYxAjbn61PNrRlrJ/DdZjQr4K+icl6QPj6DHbafvixVN9WlZBO6o2WFWj+IknnvAMYfkr++Viv2hXqu9wgMU8cq0Z1JvdRCQsRrwpDP3rHvGNpKoTnBbpGjaH1fHL80Dm9mKlnsbBbrm5VMOnUW5UU2i3OoGlK3l1hxhEiyWPloFp66ZhY3eK0lDh37zFH20MRq5pp8lKoD6jjI/qo8vfuDWke/XIxBk2MeUsOZ5U1GFro9mM1HHnfPzDQCU47kyj3b5eNGp3BtvvvxTi2oHcABZwErudcwXTzWES4lEGCIwBIw9scG+eK9nmt2xFRv3bWknb1HGUhkyldsF+cExDvOw0w7udm2rFBrHojRjs5y0jXKVeYRuJvl4oTVej9S2mP5Z+J9GoKoJVtyvTR1SKyK4NmYibp85v6ntDiGr0V+I60g2ctHzrU90zbfcK9WDmeWWmwupz1Xbbzjbv4VkM8ooeWOLyVdR+SaHfqp66ZLCrRv2VV9UobmhsxFfGxrQhK39lf9UppeOSsPI07xrj1TDKY5GbkPM2r5vOyT5zyjS+cAexmA97SKkn2bEh5FWDKO4blUzUyFLd7arLVk/7AVnIL+bGKE+42vCQp1uEnprFYJRrz7VjanuVDWNt2FQfXf5I4yj6RqGJKGdZ8RTFuQloEnS8+INVOcjNWkZRLJ3Qv3IezpLagYPzUsoCZnZOoSXWMC4Sj4zSKq2cvuo8sLW3GLnc1DZfBlcvq9tbCYRne1JRvA6kHzjZqIygog8mxekZG0dmYFvAJ7PSNhJ/fem6WqhvCQZb2gGXKKy6XZk+olLijXKd3xLuDQEq7q+Uvh6SwSBrFDfNPVMMT726g8nruaESB1OsPlehR3T1iOwcJofNzFM5JOUrSlaBPiGFfqv+7WRgBa/aYlWN4jWJnrIcQZflAL90aiJaOfSNcxCDIQf6lSH8FC4Ny2wq6jNtyA2M+PnUbiBm26ZelnoLGcZ6BMKaitI3SqtzCKFHlqxpKA9xiRjend7gNobHyIkpQD1Fu7Etncr6RnCRkS9dbmtKUoz1UbPtMXzMMqrnkO2u8Ck9Du0SEtQHebHqYNjgN8SWs2g8zs3Hn3p0yhRkGgetlzid6830ZYSO66nFIh11KllHIqMkwMHwC4tlkdQO1M3vqJ+GvhHHktye3DxPnRgJPrDd1DafAqUn3pSslF/d/L1R7aK4bgm2sZCGYrJz0KOoIcO4PB2S5f1ChnGJba2AiOvnVD8vBm16XY3Xt6Ydvao/HrT6HVM3pp/TYa0pa5338JN6Ut2WU/4S+/lUeQxgRkO7LWNKpTEh6Ul+S7k32BTtr5Rs9sUP9LhuPPZMg1DsnhkejdcufmY7moQ+V9BuYCM4tu8Y8qnbaCGJ+TJ1fMzW6xP2CHc6/a7fNRxa2rZ2oFFcQJ1e2/PIvJkSU7+WM2KGCM6Uv/8Gu4R1Omt/KqLyUdhorLR1OpPqyducUtR5SmzOHwL6o3yKBdU4h8d6nSkU3dGom467X+xatyNVHbI9FebcrFQ8xuB2jye7PzgNdHQ4E/CBqrvdLuduwHP3CMtfyj2kfbXcvEzusP2nDH3twCE/vvBUbPXwb95u+Qv9232Sypkcj9K7w0OAd34SHar+grThSGbSvz4wHVao440ytVhk+cFUso5B9FMbSG568iv65nUUSe2gDlut/OkyeWUO605yexL0TMbwCDJhf76b1uZT0DqEzFk3H87NP60bhGuQBqdS09wEi8vOpemA0jNdJ2YWpGwdcvoWrfOm/kppa4UUXt+VdwyN9LqaoG/aNSpjyWgbpnZa682r8yeVgeT214Pox5HwMGRi3ZZTfnVN2n5eSJPHEAX3oe1T5ubp1F/6e4NNsf5KHtJiHui18az+KoPcT9dpr8XumY6vrX/dYD5TZKQ4qc910A9LykL1Zp7KIDlfhXoRbmNp9VuHM/W/av3bKvA2edvObBOy4ZBR7ZZ8fw1+6GS1mUO2QT5SUY6LBEmFO42a2hAkZAOi2kHfld4SfeJXCbbZNQ9Higkh1afEt6sJIaQsmgfWh0EsAwUr5bpHqgaNYkJI9ZCREJmOk2X/vKXrCCGkdnE+grGSrnukWtB9ghBCCCGE1DwcKSaEEEIIITUPjWJCCCGEEFLz1IZRLH6Oehmf5PUMA1ydQJ9Znkj8geyF41cWJ49p0/PyZuVXo307V2qNQVlZIN1yOrL6g7t8Gqkc7ZtW1lJm6dD1tYLxJ5Ner4KkbNfSJnTZJLydTrnpVgsr/15ftVJIWQtlVUm9r5zOrHa9hFlr+bl5rG6/YGPpb5F7tO4ri7Sl9OUqwXZIQzk2yYoQ3R8UpSz76Gb2c+VTG0axrBm5P4+WBucrTKkc3WUt33MZHFMKcyzjry+50p2DXvC7hLVGZYH8/vw2NG7Po99dt1EUVn/xptRF+auPrHW4Zr72VSnhB49VQK/7Ol/mIvi1jvQDO2QdUekH1tJScc46rJnj6iZuL9dUdX2Tm5Isk5eyDyRkjeF8SdW8rBZzj9Yoo0uOrdl7Tzk2SdWpoD9Ikn0sN6ufq4zacZ8QJVwosfKl4tU1N2+5lzmMDABH9pRmyjqfGbUN4DYMcR3EDYr5apT5hj4pkXL6gZuC3DBUO17hdtt2mOtGk3WKMp6ODfcGPvQUd4+eQ8dNvG+XyRroiyrqD8qyj25OP1cJG8Aodofknb/uF1rskTRndHfCnHenv4LhC0Z/9dOLf16mB2SaoEW+5ma+JuOlIVMBXtiIadlZO66EJ6KCtV3d6TpniqMwflP2UyZ+dzrm0DbzeVD7uvD1xfIWkk9ivp3yR45eFkyTBPMUP+1iyjYbV3Yhvg7dEX09hWbOB9MKycbOY6juveme7fK5TPOFJzetQN1baRSUWxE4FieH4uX2v6EfRWVyc9HyizsfKnPU9Q6hdMzP15Pg+b5Tl81xl4Q6iiQYX1gfA2WK0ufFhHYaKLMtzwh5a3nYeQnLP0xITlJOSS9K38JhLdkX03mZhWqxPkMbRWS9R43k6GPFyqUwOj8Xq0+h8iT1M7FlD+mJ/tl5C54vpa0lYnQi+j6gfoFyShoq7qR7QayOOdj1GiunqL7LENT/oG4UToGb/IbyUH6/YOI7ZcKoc66++rj1YXZD6M8Z93X4gz9GtyaMXJzrnDi6ut0vviXJOIvCj1zH6UoII+fo8xGyM3mV0OF60L+wLDVp9DOuTZh01H45/YF7bWx9R8reHHfDF8vrCvVzFSNLsq1vri2P925dbti6b3n8TXPozfHlfdb+tRf3Bc+ba/a9eC2w/+TrZjd0/fLyheVxE1bH9dQFva15/UkV95MqhEH2e8dVjMKF5Se3qrx5+yav9vUWBXG714fj9/ZNfF78QqgsFheesstcJG9KBk+G5BO81shH58eWVYgIefh5s+IpwOTHKrvkP5zfuDp06txKK5xPtR/Mhxs2GI+cu+Bua72w6kJx4am4ugmXzY43SQ7Fyi2svNzC5739gvoOxxdPUL8Lr9P5TFVHYZy4AtdG9QGWDIN5ceIOy8g7H6hXheyHwwbqPZgXXa5Au7aJkMOLJu4CfQuHdfbDdefJKFRXwTIHca8Nx+3sB9MR7LiS4nXyYMWry2TFlbafKVJ2G5F3MA47XGGcyW3Nxro2JNuC/ciy2HGbtFPpmMmXJeNrSkcKJR6Wid93OfVr61JQLkGZCbac3OsL5e/tpy1/oAxhvQnnP0hBHnWaofBJ+hSWsdFFPw9BmQRlYOUtrMMFBGWnCdWnh47LrhcbJ814/QzLOCg/t868fIbqKKndpqvvkAzC8g2UOZxXVZYV6ucqZcO4T/SMWdMAWzrR3zeNqRnr6aGv3z9/VZ3L2dMwdejc3+tNSc+dGASyQ9a0QhM6Y6YI5s6OoDXb6z+9NvfiCKYw7T0htVkfMXDSwfxl/cQYRWtGfyjeQl1/znKNkPhbRzBpPU2n+kKOeiLrmh/CUKAcCXlTMhyw5CNT9rn8otk3yMiafKQh7ad89Uj4EHq96aIm9GYRrKcQPWN+2Zv2DKE1l4fORZE61PSN+1NTWm7T8IrQPGBNWzWhow/IX/Hz4W83oSlheqvpgF03HehBHpd13Uuclg6a/Orv86eQQ2y5NfXI2GWJoFK5+VNizvncmWmtF46+220jeD6WqxMYHMjgpPu57YJ8iCyD3+gvVkdh4vuAJUyr/NntpG5XP3oCo+3xbaF4G7fl7eTT7m+adiS0+dkRHESwXTbtimnPlep8MWLr3aRz3B2pN/Lc4UkkGaXrXvl0vVj1mKafEdKUXQj3cxW3tQgi+r107aJMHVNtR9wGvLajqFM6Eif9wr7L1JdVTkcOJbphVdwvqPKX6BoYJnO7m74hULeKBH0qkLEKO6Rk4JHq/jSH7PZBZMaq4fawhIlDEpddL4VU2pdXvz8whGSfqMNrqZ8rwob1Ka7PWMoeZjHvD9e7v+4R00Et4fJ8ROOLxAmbG9jmx9OwDQdz1augQuqwtdFspkWmerqBkyX68djTE9ptJMA0DnZLg07vk7R0Ja+ENYgWT1ZOvJE3wWIk1mEagtMzXcPmsDTAZ8+j/YypU3vKKIrAdOVujJrDgnRgMJ2ITP3BdBhVlUOplCO3+gxa9UZM25DziYaE3Eim0G4/3Ek+WjPKvE8iro7S4fcBi8jngNFuq8y6rtwHmCRKb+OSbuHDbTRaFxq3pmuXFet8iXj1rpAHvpxrpKmblrrBBYyRCkjuZwxpyh7Rz1W/rUX1e+W2C5ciOpaqrQhxfZfofxvCKll3e6Yy3am4X1gZovUpJo8WaXRltLt6X6WbO7oNUzsriGs1+4MCknV4TfdzITasUbyYj+lcBalc9ZQzsyAvqFk/3Zk6RmfSiJSPE7ZHPTUG4lG/chW9eGftKF960j2NhpGORb+9a8ozYz9Ra9RT/9gQ8srQiPMBC6M7YfWEZ8tJ/6wRkNQk1mExxNhy3vp1rzspo3secnMxx7E73jCWm7Be9cONJzTSuaUN7fpJWUZqgPYWJ2fVkUPhTS4V5chNd1JCQttIuGk7b4zbo0iKqBvm1cvKTHUpVkfF8fsAGVlX+nrOKq/+pXmgq34btynJMKlI58vAq3fBn/nQD3g726qSZvF+xlC07NH9XFX7HE1Uv1deu/ApomNRbSWWqL4rYWYpraESRYX9QjkUuy/H61N0Hm07IY2u9IyNI6MMv4p9WCNnbktkVfuDMMk6vKb7uRAbxij2p/YUonDht1RttLEyiMEYxZbpztzAoOUkPoeJhLCj3Ukvh6QnWnGmcdByhtdLtpUwSiNPo7LEW2k38PBTtTP9VkC9LMtSgmEso03DVVpOrEgdJhMeOZnDpDcKOYesZQQXnXGwO32ZfjObDjJ9B0ydGFGmsfUCZaVy0NNLGWxNOUIfII3cho8FdD+rntJd14PCtuEYI3FGkrwUEdn5b9mKDEZwzMqHuC35nW5SHUUT3wc49XDwkHW+BKrZxgvQI7DB+pg7FZPPinQ+BQn1LjgzHyr9gUx831oSKfsZoUjZY/u5avY5LhH9XqntIkyijknZW0fQZfVLS0pHCsPG9V2OG0EwflO/xgVGwtpT4/IgG+zLFFXsFwR9v7NcmPS9Ld7qcvKYOGiUrE/6+oERXwbaLcVsC6l0pQkDC8UMY+chxHe7cGTloWc08pYrTZmscn8QJlGH11I/V4SN41OsbnqD3lC7+HsljYzK07Sj2P5Qv2XYyVIpYxkc3O6e2428aWiOL6K1+oQKO5PNB4f6zVumJaMVJ+irqEcmMrK2qhN3i/hlpn1i0oaB+mvy6/6K3yCUfMSHx5tuHkS+McY43KJuEGMmbNyIqofqUMzNxM9P4RvO6ShSh4k4vmJ+/U4C3iik6tDmfXm1nGnHjDtSoP0hzbSOlFX7TFnTbWeVHjohPWSlCAyPIBPoTCqUgxjj9lvYJZFCbn0qz4fcc6HpwoK24UwBRi7Lozr/QZm+DE1JOjcT/+biHp/cYY+0J9VRNEl9gKyXfbIxmI/i+mqoZhsvoFAOXXkzehfWt4p0PgVJ9S7om9V0BboXpoR+Jqnsif1cNfsci3C/V0q7iCJRx6Tszvrk7rmWM9JThYnvu0T/g/HvBiy/2LpdQ4G+LNgWDdXqF1zUNSdd/Va/QfTjSPz8fJFVd4RkfSqQwSGgPzAzkVZXnHAQXYzsB1Q+DpvzOo5JdChdcXAeFnIy2OXJSv3K6k8S2kQ1KNYfhEnU4TXUzxXhbfK2ndlepyglM9OsiRW2TpCRtZZ8v5myUU9nDbK4dnq/3bVGsDykcjaWvpP1BHWPrC6ue0Tqhw1SFrV8396wPsXrFf3Erp72q7ru3qph3npO+5Y6KUp57jCEVE6prluEVBtZoUZGEG/WqCGpPWgUrzlk6uBmfkVvJZARJZnyoAFXbfTXCznqTm4m4gPZUKLrFiErgkzDc6aCrBwbwH2CEEIIIYSQyuBIMSGEEEIIqXloFBNCCCGEkJqHRnGY2axZRsTxi/Uc+uV4wwqtVapXmUi3TJC8FVre8i0bF/0Fo7TLaxFCCCGERECjOIyst7g/j5YGa+khedHkeAYzC6V9FW4lkLUWb9aXXVKhX8JZqYeFdDQdcNbw5BvJhBBCCCkXGsVRiGEceMO1DUN863oNY77YdJajxYQQQggpj41hFGvXBv/LJ/Fr/LouEe6SYc7PHmHU7glHJ8x5cWlQYQ9tw4gOE7wueL1xgZh1li9yzgVHUHXcBddFYMoTed5z73AJ5SnBjcAp25zjbmDCB2SVJEezLJN7TudNwm+Xr/PYX6Mxx62wbjySbrhugsdEhoXXuWXMztrng+4mxb92RAghhBASz4YwiufOAicXFvTo7vyYfIPd+r55BKPdg8BhE15/1jHkzzs8Zc6HvyTnrCGsr1O/GflEZJ+9Du80Dh4HhvT58zgS+F79Eqbz7Zixrh09HuEbLAal/kRtmrUYxVh0Pqfp5CmFG8HwbkzuMGXQsvK/Vx8vR3kwGERmzJxbGEeHHJYRdSW/VvQ615n1c+Pi0d/Ht76vL4b2seFe9Os1mcXgdT496qaRCXxLX+ptEh0m3pN9StaHLPlt2YoM8ricwi+bEEIIISTMhjCKmw5Yvr7NHegpYhz1jFnGrv7u9jSmZizztK+/+GeVlUE3KIvZBz6k0IYjh103C2VA7+8F5i8bw03tH/BdMPTIZi6PRbOvWZxAnzaIU37W+arKd841KgUnzUQ3AtuIb+5Vhvs08iYTxeSYv+LKqAlNCQZ7bDyynZvCtIlzaWYKub4OJ+zsJEZb7a9lNaE3i0C99Iz58TbtUcZ4QH71yFhlIYQQQggphY3hPhGY2t+NUXM4LfWZNrOVljlkt0+h/VyJL97ZbgXa7cBmGge7ZTQ2pUEsLOZ91wX31z1iGeIlEitHGSE/j/Yz25xzxVZ6iI3HNnTlE9DAkT2OBJeu5IHcIFq86+QLWtPI0colhBBCyE1g/RvFYoBtz6Pfna5fGEePOZWWxfy02UrH3NHdyGeH0huvghjEegULk0/tdmDThiNj4sqR4Gscpj6D1tYhP073V85LgUXl6LuOnMTueMO4SDwyQg5xoZBRbrSjzciw7vaMHsX2yuD+SvqkcRsy9WaTEEIIIaQE1r9RLKOlrRl4tpBMw5vNOAK+vMpY7fL8WosjL6t1zQ9hKGV4Fz0S2rjVM1a164DZ9qjvxLD2cU5pGG9pU2blIAZDL6+VRaIc55C1jODEkfVi9aHzPIWRE1PAzjbfeBfXiuEKllXTriQZbBUjW49Up1v3mRBCCCFEWP9GsfjFKsPQm3Y/i6IjxT07gUE3vPbhTekGoYytwYHpgmn+8IoKUdTt6tdGn3vNYD4TGik2bFGG8VgvRpVhXNRNQY/eygtpxq3B/MoyLBPlWI/MvJ/3ljPtmHFHcLVPtrX6RNH6kOXT1IPJcCb0INKEAfNA4KYTXmEiETHGXf9kQgghhJASeduywmzXAM5qDd5HOdYhMlLdku8v0a1go7P+65UQQgghq8vGeNGuZpCX06bRs4MGsc3c0W042GgvjUcIIYQQUho0itcFzscrGhto/EXRdKDUF/IIIYQQQoLUmPsEIYQQQgghhXCkmBBCCCGE1Dw0igkhhBBCSM1Do5gQQgghhNQ8NIoJIYQQQkjNQ6OYEEIIIYTUPDSKCSGEEEJIzUOjmBBCCCGE1Dw0igkhhBBCSM1Do5gQQgghhNQ8NIoJIYQQQkjNQ6OYEEIIIYTUPDSKCSGEEEJIzUOjmBBCCCGE1Dw0igkhhBBCSM2zIYziuaMNaGzow8RVc8BjDtnI4xFcnUBf2rArzNKpPjTum8CS2S+Z2ay5fgkT+xqQnTXHNyDRsrLK7cnCQo4Vq2utD1mlQSmISiMVTj4bG6xf2njSpBkII22hAl2w5CHtre9UmlwWqYc1zRpqO0myq0Sua6jPC+CV6WbUgaRhZCDpHk3V4h1SyW8N6VEUZbXrEGn7ypXuAyT+tH22TTkyqIbcSqJI/10kP3KsmOz1vTSV/q9xna6QDTNS3NoKHDxRcnPw2dKJ4YVhdG4x+6tI3a5hzD/biTqzXzLNA5jfn0dLwzbk9y9goNk5fHMa701EdYIt+f4IWdWh89nzyBxXHcHxDGYC51XnIsfWSF0LPWMLmF+Q33kcwSAGV6SOmjCg0nB1oWSkfZzL4JjqmI9lzmN4VxrtjK6H9J0vWVHWUJ8XIKb/WhlER4eAQ0ZHDzSZ44UU6O0akF/FfXpZ7XoNIkah7tcHVE9XIuXIIOaalenbxAg9hsy5hLaQVAZ1n5RjFdkUNcSqGsUL8/P4ze5uPUImf2W/bHa2o2d494Z9eikZubFUYgStA5bqezEfexOTm50yNMMdgdKPjjXbOdShbWcbcvlFs7/G0EbAQok3zph6ICSJm9p/1biOltWu1xptGKqk/sqRwU2UW9vhFA9fMfmZQ8c6r9uby6oaxY8//jhmZx0rVv7Kfvm0YWCsF6PdRaZP9BRLg/nZU19BVwv3iU//dcPbT4BmKmhCpiXUuexs1JRC6Fhs2iFM3P7zvxNPZD6iCKTj561rGMgNbFPHQuX0wlqyM3mYiyt/iNLlFT3K4R8z9TEr00ImvsDU2BxGtg/GyNBce8rIweRD5617N7pMfMG6cqannHTUuRlz2CN9HeipqkBe06LKNAAc2SOGfrw+lTcyFBWfTzn1JwTCF5Q5JDN1/TfU9S0D04B6gLXjCcvfL6Obb/t8QtsJYPTgasK1obYSK1s9PRl1Pr6e4mQd1z6j4ojKT7x+ueU1u4Kpt+hShcM7aXp5S9BxVx5+GcxxRVAngmVw9cwnouwF8nEOh+ONT9OVjSlfbB8i2LoRX/8i80K9DcovuS0YAnrklt3Og10f4fpRePXpXBvVpwdww9sytfXBnA+362AdhOMOyqywr3Tk5V8flMWiLaewjgXSDZ4P179/Xsni0DaM2Dpk4epc4Ho73RgZJNZnSP+lPqN1RIjTseT6l/icsHWoMwaxlmtYZkJkGYyOqHueE3eoDAFZZ6FyHiIu3yFi+0ZDqE5jw60VlleRhq1bC37lcOGprcv7XrzmbTc8dUFvq73lJ7fuWx5/0+y+/qRK40l11CD7vePL5spA2Gsv7tP5ceNVR5bHe619HdfW5Sdfd3YFfY2XtsKOPzHtEIFzoXTNvp1ugHA6b44vj5uwtpwEnV8rD4H863is8CqefaHy2pQjrwIZ6DTcvEt9qLoMySG2bgOYa+26kOufCpXVi9sJ7+fNpOXlJVQWs++Ft8qh9c8uUyJuOv6voH7sMtjyCcsuikCYUJ5DlFN/QRmG8xuWmZLNi07YgnIVyN+uW1dGvk6nl7HRA7s96HLYccWds+SVRvft8iTVTSh9t30WxBFT1wVlD6Rly82QlJdA+HB9WeUvIHzuwvIFs63LYZdPp+GHLaz7UFwx8tHh4tqvLSvhdZUfvWHq3yu/k5affjBvQXkUUph3K3xsHqzy6TB2eiY/1nXB+o3IT6g+w316AVqedplNGu6+Oe/nSRGug0CaYZnFlMFK75pq93rPpOXlNywPfd4urxN3ZPkC8rZkHIGjk4W67e1HyCCgX+6+Wyadtp3PC8vjJq5oHbHjtuu0SP0H5C5E6INLRBkkn08mltmqY1MXft6L51ufC9dhBPF97NpkVUeKm5uDc2Ph/XJoOjCOnuFjkU/Nc2dH0Jrt9X2OmntxBFOYjnrCFvrGrWmHOnTu70XuzLT/lN06hF4ry3Ut7WgdnvSexnR6O9v0lE7JabtcncZUrhf9oXyMno14WpQnw+Mj6Bmz/Kq2dKIzUqxLmFZl6dnvTznV7epXsvPzL+UbctNV8fT3AfkrCU95JcoLzR3oyfkyWJqZQq6vw/IJa8ORw27+nPgwf9mPLxF1rR5xdVHXH7DKKnWVy0M7KsxOYjSQNxX28BBazV7aOpARkK75oZAPc3F8n+IF9Oe3eSMBTn34ulwonypTUv0V0Z/ZERyEpT+Kpl0xcimQfxN6s8DUjF/Ttk437VF149ZdUZQenLPag7S71hFMmlGcpgP2OaWPyONyoE3OIbt9EBlVR3FT+UntPkh8+0xT1+XqVypK6mcc/L6gCU1aNkYn7PKprd5sW2I8Pkn9V0L71Vj11qzyYzYT+5AUelcacXkQ4vWofN1OiSqj7Sut0wj183a/nHivKtpXTuDYcC9OWunVqXbv7alr4+4pTrpDlptARB+kUXpySGRp61kRqti3zZ0YBAL5bEKn1c8FqKRv03If9EfAdVztaItzowjVo8h3wCqz7ZpXUMcq7JBqpx6p2kbxvlEo3seuLVbVKH7iiSc8Q1j+yn7lOJV38FB4ynAJl+fdqSZ3KH8bDuamkdqFsz7jN/4odCN3b7hzmFSdg3OTqSDtxTxyGPGm/PWveyTGOFxEPteGTL3ZTUTCAqPdVrwNuzFaTYUtJq9AQ5OOyHUdWCHsaRzVmFXxNUtX8kDjVq8DLCBNHeQG0TWQwckKDRbnoc69YTWho08ZK0XlE5zmCkyPVkJi/SXrT1GZWuiwSn4tVhlkGnJlfKvrsLXRbAqBaVDJf5DR7t3IZ88n+7bGtvswSe2zSF1XSb9iKamfUUbFs+fRfsb0Z950bnT56m7PpHyYLdJ/xbRfkf/wuXZMbXfO+dPWyVRV74rkIZUe3Sy2bIWqkRiS71Wp+srWDFLdggI46WZuD8UsfVDoIWHu6DZM7axQlmX3bTH5jKEyHXMMWfeBUgxZ21BPg+3Gol07NMXLkCbfqXW6SB+71lhVo7ihsRFfGRvTI2TyV/arQd2uIfMW/2VzRHBuhvaonPtL3bj0jSOZph1mdEWetLyRngrSlsarnthmQtdFvxRSj0xrWiNfwsooWijear5NnUJeMuIDeWKXkSokPAVXitxQ9dvJppzn/NGNyJu2nfc0daDOn8zmlVER40uYlquXVdfrI/qkRzQS5eOsLBGZr0pIrL9k/UlvCJmwfeOheNQvYSWA8nFuCBrprLfn0e+lqR5IzCmXnrFxZJSBUMwPLrrdh0lun4l1XS39iqOkfkYQw9gJcxK7jWGcUL5UD0gJ1ye0X40YpfrcOKCMmTSGcdX1LiEPafXophDqY4Ik36tS9ZVljXQ76UbORNpGttIDmS2xZ6DKouy+LSGfEVSqY/4slPOw3VHCg4AYxHrVCZPmjDcSHF2GxbxrNKfLdyqdTtHHrjVW1SheOZwpHQwMBp5K9I2r2It4NgE3jDlku1M8qcn0gFLirDzV7fAVqOS0Xba0qdtj2mW6zJOlnY5SyonIG4SEjRpRr4By5KXLN4WRE1NA5JRzdQiPcOjpabPtdOTWNJWSiEzjeqSsg/pdw6rjCRku+ik55iWYCGRqLjBtbqYuB2W6sMRRgpIpqf6K6I92jQnKbO5UQthyV47R8k1qV9OBpRqXTg1qtw49LSg3xsANVxm0ZtNHHjhSdP4x7T5IkfZZpK4j9SuAY1T6U5xOHaaipH5GxWu97FOf8W+2BeUzeXBlom+23kyIqQ+vIcbLJ7H9KkPJ1x2RgdksRiV6F6ZoHlLqUYAK6tMm3Lcp/YI9dR4i8V6Vpq9sHUGXpR9Lqt1HxhVCPxSqe7bfB5m8uvcFaevdecsdpgSq2LcV5nMOE3F1WqmOmVmoY/uOIZ9QZ4WER4MdlxAXabO5gRG/XpRsjw2bbSFVvlPodKo+dm2xQY1ihVKmgI+M0Dxgbir+lEDiVHNfu7N+pRn2Tzf9JdOgIxhVT7MB/55S0/aQERlH8bzr1C9OWWWN40A625WxaTRS/JWg43GMNAl7sjE4RRL5ZmtaypKX0wGNDmdippyrg+MT5r6F24DBvOrczTln6nMIeW+6THXE++2RqPR1oGWq6l/kn7YjtKfptM9oYBTBkU8uV9ooQVmUWH/J+uN3mF7Z8o5RY9eFIyMVNiB/+aV8kJBON9HPug1HMpNevC22C4Lx2fPyfxYxoxhO/nTbiW2zMe0+RFL7TFPXyfrlDga4Mp9Ex1ivOVeMUvoZZazN+22p5Uy7p7MF5VN6BNvnUPWDbv7l/CD6ccQyIOPkk9h+laHm604pU+ul6V2h3lqkykMaPbIpXp/hPj2S1iFkzvp5O9ho+9dGkHSvStVXnseRgH5YKp6ELMM3lsFB44LiytHJq2Mg5+Qh1zuvfqnkqKhm31aQTxWfMT6r2rcZtBGungDbWxLqrABVD/JOgFVP+UbfHipoZ4eA/oC9lDbfRXQ6dR+7dnibvG1ntmsbeQrVw/yOU7gsx6I/DFHuVFoFrGba5bIe87xeuBmyXa/1N3e0D5f3xLn8zCHbIIveV9ElaIW5qfUQ6vPIBsR1O6mWS9U6ZN3fm1iHN5WNO1JcIiv+Zn9qzJuvsVOwpKZQhsugt3YxCdN0YP0YvEW5yXW9dvo8Qkg0xVw9SLWpeaNYniJlWF9Pq67qk+SSXmjbnd5KN/1HNi5GH/SSNxvI8CMR3Ny6Xjt9HiEkDmfliLRuiKRa0H2CEEIIIYTUPHSfIIQQQgghNQ+NYkIIIYQQUvNsGKNY/G/0WnnyRvVKLXCfAi8fxZA3Sr0lTByfQr2ES+C4QY5FlCmxzPpY3JJKLvJ2ftrlYUoJW2s49dd36hvrREbroC4tnU7dpgylhq8WN70P0v1C6fWofYrTLmW1JhH9lb5tvfRJ7DsJWS9sGKO46cAC+vPb0BhYYmi9dEbO2o6Z4w2FS6/IDVZ/yalw2aToMgvKSDvkfEWmthz0V6e+5bOj+f0LGN7198wRUjF6PdQMjinjR77KlLiu6hohvj2uBErXdb9Q4ot5ypDWy1NVZXmn1Whv8gAqy+zVWt9GCLkZbCj3Cbkpza/bNTfFMFb5L7hZtWEo4QYWWeari9h6eL3KYb2xhPo9vEGvCGIYqwe79WAQu9y0PmgW6CjDsF2q7133a4m3HeZqLISQlWFDuU/4X17JYk5PYe7GqPsFnJCrghfW/oKbcV2YM0sWFZyPwF3eSP/UtZfNcYdQWglTqoF4vHAy4rvN+qSmjRN39pTjJuGVT8qwfTe6zNd2gtPIwfz0nQrmVojORwR66jbKPSNcZufnh5PRJf943DR31BS4fSxQ31L2mPoujCc4uqXLq+o4UO5SdGJ2BC3hz4EumjrRv7AMg+VPlLGioJzmeHI8ESN4phyBfAbiCI/4hesxeN6R24QJ45wrJusCjA65P+/a0HH9K8i7T6DuVLgCrQ7HF9emo9we3GNR8tPx+uEDdWXHE0jfloeRzylzXvLlpmNfE0pXl7dbtXFzPti2VHyzcfo3h5Ht9udpfQrrzj5m64k5tkrtTT4L3WJ9tluz2u0tQm/ccgax4wi3i1LbW1CuGld3zC4hpAxkSbb1zoWnti43PHXB7C0vX3txfNnZu7D85NZ9y+Nv6h3FteXx3q3L+168Fth/8nWz+/qTyw1brfNvji/vU/ve+RDXXty33NA7rmIxRFz/ZCgt75yEda/V6Txp8qx4/YLZDuUvgHMukL7iwlN2PJIfdz9cdiM3Sz7h8uh9T66WLHW8tlzjKYzDLk+4fixs+Qi2jELnril5OduF8UkZ7TKHw+j82XUWlpMuq7Uf1olAXpzy+fumjkLlt/NToEM2ieVMiqdQDpH5DOiclDOoK3abCp436ZUo6zDxumqTHEeB/HQ84fqzry9sBz7OObu9+WUqzIddXt2WovqgcLlkP1wPBXIOHgvGrfL4lKUTBfWuwnr7UfoXI8tAvhRWewvW67XlC6+728kycQiGcfQmGF+gPkz5vf1Qe9PXB8pTrLzB/BToi01IBqnbW7j/VkTmM6wH3n4434rAeRNfQNZBuWrCdUgIKZn1P1KsntKPDfcGFqGv29UZPX15dRpTuV70e9Ox5vvgZ60n+tYhDLnnt3Sivw/IX4l69jZfnrO/NKO/62+2BXX9gJVW28425PKLZj9MHpfdp/7mptTTr+Ev3TQdsKZumzvQ48ZbUHYJO259h7ywPM533CeDIysyKtOdx5E0n85VdTNofyBgdhKjSr69nqtBE3qzwNRMhHwl77kpTBuZFHx9K5eHK8k6JS9bBiXTN25N0Ts6kVOy8HKVWieENhw57MrQiQvzl524TPm9uBRaxlY5C4gqZznxFKDyec7WlV4caR3BpIw6Gl0JfNjBPu/S11/RNHasrlrMHZXF64di0ineBufOjqA1cH1E/Xo4bdTvD+YwOdyG9haJ3dHVg94opXUuoQ9y0u8Nyhl2Pal6CH/BTtXtjBVX054htHrtUOX/gNVGW9rRaulIov4lUaS9+f1WHZqaPWmXB9tbsD3dpPZGCCnO+jeKF/PItWZQb3YTkbAY8aYd9a97JN1No4BF5HNtyBRJ2J6OaxmYNkdDiO/kuXZMGZeH5BUjiqCn8tw0ZXrTUFROUh5gtNvPr3O9bahM42B32q9uzSG7fQrt1o1g6Upe3XQG0eLF78gk+kHBNpjF+LE+f6sMn/kxmHoMT0NWgfoMWs1mNdHlb9xqbuAu9ci0TiNSBDHlLDmeVNRha6PZjNQV53y8cVIGcbpqkCnjLtgGVJhibXAJl+eBzO2h66V+A4akT+BBUIwhyxDRBmjUudi25aSfG9hmyii/bTiYK7GetmxFxmxqbNeK7YOqT6sG8e1N/KRPYreT3kpMz7O93Zz2Rggpyvo3ihNucAVIWBmFWZCXYaxfWW9iR3WKzk3QRQxieXPeTWcm22bORCCGsQ43DijDtCzDWIwM/ea7WzZrJDhKTlcvK5PXRcojoxnute7PNoDV+bEh5FPkL2qEr+52dWvvGw/Fr372CImFGCGQESQZSUE72mxDXG5gcq1+mKiyYawfnqqPLn/kA1iCYRdRzrLiKYqluwltqsDALJckXRXU+cAsQyTF2mCCYRH7gNiEjj5nhE5GeXt2WOlvaUO7Gb0LnIuVl5N+z5hbRv9X0ouZdjsVg1ivOmHiOjdUNYMyqb05LxCqPmznFFqqbRizva18eyOEpGL9G8XmRtUVeBljwkw1hpCwGMRg6IWS8nBueKPHrRvE7AgOer270+n5nZoz1RuJutH5Rqbc6M1mqYRHHGQ0y2w6o00jOGaVfe6EPcokU8fAwfBLY2HqZVQ72TDWI3zzwelGjUzRDu9Ob/Dr+prCyIkpYGeb9+CydCrrG8HhUbQQ9Zm2wNSsGOvhEUkMH7OM6jlku5XBE3JLqQp6ijqof/Li0MGwwW+ILWfReBxj0XdLccoUZNpyBXCvN64tEW1KdLRruBcdCcZcKlm7JOmq5He7zEhY082RFGuDypjb0YvcgP1y2RImDg0G9CmMXDN6NovJgvI60/Ojx/twTOm35waU0AfpuLqTX+4qQNWt/3Ktya9xwQiPWmo3B7NdMZHtTaV/1JevNhATqMn2ZvpWz9VBP9CF+/pqt7cibVzPwlR5sICQGmADrD6hblTPnseReTO9p34tZ6TLEIwfoPd2tIQdRyYwnVm+u4KeVmy03AHOdlj+jOYG6rkjDCLfGDNSXJ/RRqYTbhumdp4vb4kv7a9o5wfW6FsTBhaCZZ/cERydq9s1HCyP/AreoFbIqPaYKVv4vHtDUDcROx7njXSVB2NQe/EndtyOoT46nAn4QtfdbupUX78b8Nw5wvUtZRoKyCRcZk1fO3DIjy+fLVP+RSmsg5Yz7cF1qS2Sypkcj9K9w0OAd34SHaq+grThSGbSv15GZe3rQ22qsRs4WWSpsVSydknQVdeQCrryRBuWyW1QoafEM5YcnfaVuMybfngbUXpg+QK7aANJ6XfAqE7og1T6M9l80GWr2Ehr6xAyZ93w23Cw0Xchcdw7/HQG85kquh5EtTf14GHXk+iBpydsb64cBtz+UM4fAvoLZgWr3d7StHFCSKm8Td62M9uE1Bwyqq0/ZpA4TU+IyxyyDfLxiDR+9WXgukfEGG7rHbY3QshaZgOMFBNCyM1Bj2JzFQBCCNmQ0CgmhJBiyAhuQ4P2lbeXSyOEELJxoPsEIYQQQgipeThSTAghhBBCah4axYQQQgghpOahUUwIIYQQQmoeGsWEEEIIIaTmoVFMCCGEEEJqHhrFhBBCCCGk5qFRTAghhBBCah4axYQQQgghpOahUUwIIYQQQmoeGsWEEEIIIaTmoVFMCCGEEEJqHhrFhBBCCCGk5qFRTAghhBBCah4axYQQQgghpOahUUwIIYQQQmoc4P8He7dC5t37FtQAAAAASUVORK5CYII=;" parent="1" vertex="1">
          <mxGeometry x="60" y="10" width="709" height="314" as="geometry" />
        </mxCell>
        <mxCell id="TW2lL7LWxKuJIwYdTBNt-2" value="" style="ellipse;whiteSpace=wrap;html=1;aspect=fixed;" parent="1" vertex="1">
          <mxGeometry x="469" y="380" width="20" height="20" as="geometry" />
        </mxCell>
        <mxCell id="TW2lL7LWxKuJIwYdTBNt-3" value="" style="endArrow=classic;html=1;rounded=0;exitX=0.5;exitY=1;exitDx=0;exitDy=0;" parent="1" source="TW2lL7LWxKuJIwYdTBNt-2" edge="1">
          <mxGeometry width="50" height="50" relative="1" as="geometry">
            <mxPoint x="739" y="410" as="sourcePoint" />
            <mxPoint x="479" y="450" as="targetPoint" />
          </mxGeometry>
        </mxCell>
        <mxCell id="TW2lL7LWxKuJIwYdTBNt-4" value="otevÅenÃ­ souboru" style="rounded=1;whiteSpace=wrap;html=1;" parent="1" vertex="1">
          <mxGeometry x="419" y="450" width="120" height="30" as="geometry" />
        </mxCell>
        <mxCell id="TW2lL7LWxKuJIwYdTBNt-5" value="pÅeÄtenÃ­ ÅÃ¡dku" style="rounded=1;whiteSpace=wrap;html=1;" parent="1" vertex="1">
          <mxGeometry x="419" y="530" width="120" height="30" as="geometry" />
        </mxCell>
        <mxCell id="TW2lL7LWxKuJIwYdTBNt-6" value="" style="endArrow=classic;html=1;rounded=0;exitX=0.5;exitY=1;exitDx=0;exitDy=0;" parent="1" source="TW2lL7LWxKuJIwYdTBNt-4" edge="1">
          <mxGeometry width="50" height="50" relative="1" as="geometry">
            <mxPoint x="229" y="410" as="sourcePoint" />
            <mxPoint x="479" y="530" as="targetPoint" />
          </mxGeometry>
        </mxCell>
        <mxCell id="TW2lL7LWxKuJIwYdTBNt-7" value="" style="rhombus;whiteSpace=wrap;html=1;" parent="1" vertex="1">
          <mxGeometry x="454" y="610" width="50" height="40" as="geometry" />
        </mxCell>
        <mxCell id="TW2lL7LWxKuJIwYdTBNt-8" value="[ÅÃ¡dek pÅeÄten]" style="text;html=1;strokeColor=none;fillColor=none;align=center;verticalAlign=middle;whiteSpace=wrap;rounded=0;" parent="1" vertex="1">
          <mxGeometry x="369" y="600" width="90" height="30" as="geometry" />
        </mxCell>
        <mxCell id="TW2lL7LWxKuJIwYdTBNt-9" value="" style="endArrow=classic;html=1;rounded=0;entryX=0.5;entryY=0;entryDx=0;entryDy=0;exitX=0.5;exitY=1;exitDx=0;exitDy=0;" parent="1" source="TW2lL7LWxKuJIwYdTBNt-5" target="TW2lL7LWxKuJIwYdTBNt-7" edge="1">
          <mxGeometry width="50" height="50" relative="1" as="geometry">
            <mxPoint x="229" y="390" as="sourcePoint" />
            <mxPoint x="279" y="340" as="targetPoint" />
          </mxGeometry>
        </mxCell>
        <mxCell id="TW2lL7LWxKuJIwYdTBNt-10" value="[konec souboru]" style="text;html=1;strokeColor=none;fillColor=none;align=center;verticalAlign=middle;whiteSpace=wrap;rounded=0;" parent="1" vertex="1">
          <mxGeometry x="503" y="600" width="90" height="30" as="geometry" />
        </mxCell>
        <mxCell id="TW2lL7LWxKuJIwYdTBNt-11" value="" style="endArrow=classic;html=1;rounded=0;exitX=0;exitY=0.5;exitDx=0;exitDy=0;" parent="1" source="TW2lL7LWxKuJIwYdTBNt-7" edge="1">
          <mxGeometry width="50" height="50" relative="1" as="geometry">
            <mxPoint x="229" y="490" as="sourcePoint" />
            <mxPoint x="349" y="730" as="targetPoint" />
            <Array as="points">
              <mxPoint x="349" y="630" />
            </Array>
          </mxGeometry>
        </mxCell>
        <mxCell id="TW2lL7LWxKuJIwYdTBNt-12" value="" style="endArrow=none;html=1;rounded=0;strokeWidth=5;fillColor=#bac8d3;strokeColor=#23445d;" parent="1" edge="1">
          <mxGeometry width="50" height="50" relative="1" as="geometry">
            <mxPoint x="289" y="730" as="sourcePoint" />
            <mxPoint x="369" y="730" as="targetPoint" />
          </mxGeometry>
        </mxCell>
        <mxCell id="TW2lL7LWxKuJIwYdTBNt-13" value="" style="endArrow=classic;html=1;rounded=0;strokeWidth=1;" parent="1" edge="1">
          <mxGeometry width="50" height="50" relative="1" as="geometry">
            <mxPoint x="209" y="910" as="sourcePoint" />
            <mxPoint x="309" y="730" as="targetPoint" />
            <Array as="points">
              <mxPoint x="309" y="910" />
              <mxPoint x="209" y="910" />
              <mxPoint x="209" y="630" />
              <mxPoint x="309" y="630" />
            </Array>
          </mxGeometry>
        </mxCell>
        <mxCell id="TW2lL7LWxKuJIwYdTBNt-14" value="" style="rhombus;whiteSpace=wrap;html=1;" parent="1" vertex="1">
          <mxGeometry x="310" y="890" width="40" height="40" as="geometry" />
        </mxCell>
        <mxCell id="TW2lL7LWxKuJIwYdTBNt-16" value="tisk ÅÃ¡dku" style="rounded=1;whiteSpace=wrap;html=1;" parent="1" vertex="1">
          <mxGeometry x="234" y="774" width="90" height="30" as="geometry" />
        </mxCell>
        <mxCell id="TW2lL7LWxKuJIwYdTBNt-17" value="Äteni ÅÃ¡dku" style="rounded=1;whiteSpace=wrap;html=1;" parent="1" vertex="1">
          <mxGeometry x="334" y="774" width="90" height="30" as="geometry" />
        </mxCell>
        <mxCell id="TW2lL7LWxKuJIwYdTBNt-18" value="" style="endArrow=none;html=1;rounded=0;strokeWidth=5;fillColor=#bac8d3;strokeColor=#23445d;" parent="1" edge="1">
          <mxGeometry width="50" height="50" relative="1" as="geometry">
            <mxPoint x="289" y="850" as="sourcePoint" />
            <mxPoint x="369" y="850" as="targetPoint" />
          </mxGeometry>
        </mxCell>
        <mxCell id="TW2lL7LWxKuJIwYdTBNt-19" value="" style="endArrow=classic;html=1;rounded=0;strokeWidth=1;entryX=0.5;entryY=0;entryDx=0;entryDy=0;" parent="1" target="TW2lL7LWxKuJIwYdTBNt-17" edge="1">
          <mxGeometry width="50" height="50" relative="1" as="geometry">
            <mxPoint x="349" y="730" as="sourcePoint" />
            <mxPoint x="389" y="750" as="targetPoint" />
            <Array as="points">
              <mxPoint x="349" y="750" />
              <mxPoint x="379" y="750" />
            </Array>
          </mxGeometry>
        </mxCell>
        <mxCell id="TW2lL7LWxKuJIwYdTBNt-20" value="" style="endArrow=classic;html=1;rounded=0;strokeWidth=1;entryX=0.5;entryY=0;entryDx=0;entryDy=0;" parent="1" target="TW2lL7LWxKuJIwYdTBNt-16" edge="1">
          <mxGeometry width="50" height="50" relative="1" as="geometry">
            <mxPoint x="310" y="730" as="sourcePoint" />
            <mxPoint x="340" y="774" as="targetPoint" />
            <Array as="points">
              <mxPoint x="310" y="750" />
              <mxPoint x="279" y="750" />
            </Array>
          </mxGeometry>
        </mxCell>
        <mxCell id="TW2lL7LWxKuJIwYdTBNt-22" value="" style="endArrow=classic;html=1;rounded=0;strokeWidth=1;entryX=0.5;entryY=0;entryDx=0;entryDy=0;" parent="1" edge="1">
          <mxGeometry width="50" height="50" relative="1" as="geometry">
            <mxPoint x="280" y="804" as="sourcePoint" />
            <mxPoint x="310" y="848" as="targetPoint" />
            <Array as="points">
              <mxPoint x="280" y="824" />
              <mxPoint x="310" y="824" />
            </Array>
          </mxGeometry>
        </mxCell>
        <mxCell id="TW2lL7LWxKuJIwYdTBNt-23" value="" style="endArrow=classic;html=1;rounded=0;strokeWidth=1;entryX=0.5;entryY=0;entryDx=0;entryDy=0;" parent="1" edge="1">
          <mxGeometry width="50" height="50" relative="1" as="geometry">
            <mxPoint x="381" y="804" as="sourcePoint" />
            <mxPoint x="350" y="848" as="targetPoint" />
            <Array as="points">
              <mxPoint x="381" y="824" />
              <mxPoint x="350" y="824" />
            </Array>
          </mxGeometry>
        </mxCell>
        <mxCell id="TW2lL7LWxKuJIwYdTBNt-24" value="" style="endArrow=classic;html=1;rounded=0;strokeWidth=1;entryX=0.5;entryY=0;entryDx=0;entryDy=0;" parent="1" target="TW2lL7LWxKuJIwYdTBNt-14" edge="1">
          <mxGeometry width="50" height="50" relative="1" as="geometry">
            <mxPoint x="330" y="850" as="sourcePoint" />
            <mxPoint x="399" y="730" as="targetPoint" />
          </mxGeometry>
        </mxCell>
        <mxCell id="TW2lL7LWxKuJIwYdTBNt-25" value="[ÅÃ¡dek pÅeÄten]" style="text;html=1;strokeColor=none;fillColor=none;align=center;verticalAlign=middle;whiteSpace=wrap;rounded=0;" parent="1" vertex="1">
          <mxGeometry x="220" y="880" width="90" height="30" as="geometry" />
        </mxCell>
        <mxCell id="TW2lL7LWxKuJIwYdTBNt-26" value="[konec souboru]" style="text;html=1;strokeColor=none;fillColor=none;align=center;verticalAlign=middle;whiteSpace=wrap;rounded=0;" parent="1" vertex="1">
          <mxGeometry x="350" y="880" width="90" height="30" as="geometry" />
        </mxCell>
        <mxCell id="TW2lL7LWxKuJIwYdTBNt-27" value="" style="rhombus;whiteSpace=wrap;html=1;" parent="1" vertex="1">
          <mxGeometry x="539" y="890" width="40" height="40" as="geometry" />
        </mxCell>
        <mxCell id="TW2lL7LWxKuJIwYdTBNt-28" value="" style="endArrow=classic;html=1;rounded=0;strokeWidth=1;entryX=0;entryY=0.5;entryDx=0;entryDy=0;exitX=1;exitY=0.5;exitDx=0;exitDy=0;" parent="1" source="TW2lL7LWxKuJIwYdTBNt-14" target="TW2lL7LWxKuJIwYdTBNt-27" edge="1">
          <mxGeometry width="50" height="50" relative="1" as="geometry">
            <mxPoint x="349" y="780" as="sourcePoint" />
            <mxPoint x="399" y="730" as="targetPoint" />
          </mxGeometry>
        </mxCell>
        <mxCell id="TW2lL7LWxKuJIwYdTBNt-29" value="" style="endArrow=classic;html=1;rounded=0;strokeWidth=1;exitX=0;exitY=1;exitDx=0;exitDy=0;entryX=1;entryY=0.5;entryDx=0;entryDy=0;" parent="1" source="TW2lL7LWxKuJIwYdTBNt-10" target="TW2lL7LWxKuJIwYdTBNt-27" edge="1">
          <mxGeometry width="50" height="50" relative="1" as="geometry">
            <mxPoint x="619" y="610" as="sourcePoint" />
            <mxPoint x="619" y="950" as="targetPoint" />
            <Array as="points">
              <mxPoint x="619" y="630" />
              <mxPoint x="619" y="910" />
            </Array>
          </mxGeometry>
        </mxCell>
        <mxCell id="TW2lL7LWxKuJIwYdTBNt-30" value="" style="endArrow=classic;html=1;rounded=0;strokeWidth=1;exitX=0.5;exitY=1;exitDx=0;exitDy=0;" parent="1" source="TW2lL7LWxKuJIwYdTBNt-27" edge="1">
          <mxGeometry width="50" height="50" relative="1" as="geometry">
            <mxPoint x="349" y="830" as="sourcePoint" />
            <mxPoint x="559" y="1000" as="targetPoint" />
          </mxGeometry>
        </mxCell>
        <mxCell id="TW2lL7LWxKuJIwYdTBNt-31" value="zavÅenÃ­ souboru" style="rounded=1;whiteSpace=wrap;html=1;" parent="1" vertex="1">
          <mxGeometry x="499" y="1000" width="120" height="30" as="geometry" />
        </mxCell>
        <mxCell id="TW2lL7LWxKuJIwYdTBNt-32" value="" style="endArrow=classic;html=1;rounded=0;strokeWidth=1;exitX=0.5;exitY=1;exitDx=0;exitDy=0;" parent="1" source="TW2lL7LWxKuJIwYdTBNt-31" edge="1">
          <mxGeometry width="50" height="50" relative="1" as="geometry">
            <mxPoint x="349" y="1060" as="sourcePoint" />
            <mxPoint x="559" y="1070" as="targetPoint" />
          </mxGeometry>
        </mxCell>
        <mxCell id="TW2lL7LWxKuJIwYdTBNt-33" value="" style="ellipse;whiteSpace=wrap;html=1;aspect=fixed;" parent="1" vertex="1">
          <mxGeometry x="549" y="1070" width="20" height="20" as="geometry" />
        </mxCell>
        <mxCell id="TW2lL7LWxKuJIwYdTBNt-34" value="" style="ellipse;whiteSpace=wrap;html=1;aspect=fixed;fillColor=#bac8d3;strokeColor=#23445d;" parent="1" vertex="1">
          <mxGeometry x="554" y="1075" width="10" height="10" as="geometry" />
        </mxCell>
      </root>
    </mxGraphModel>
  </diagram>
</mxfile>
